<?xml version="1.0" encoding="UTF-8" standalone="no"?><!DOCTYPE svg PUBLIC "-//W3C//DTD SVG 1.1//EN" "http://www.w3.org/Graphics/SVG/1.1/DTD/svg11.dtd"><svg width="100%" height="100%" viewBox="0 0 4167 984" version="1.1" xmlns="http://www.w3.org/2000/svg" xmlns:xlink="http://www.w3.org/1999/xlink" xml:space="preserve" xmlns:serif="http://www.serif.com/" style="fill-rule:evenodd;clip-rule:evenodd;stroke-linejoin:round;stroke-miterlimit:2;"><g><rect x="0" y="0" width="972.022" height="983.822" style="fill:#fff;"/><g><path d="M973.384,0l-973.384,0l0,983.822l973.384,-0l0,-983.822Zm-543.774,378.059c-25.775,-6.952 -60.142,-10.023 -78.551,-10.023c-55.245,0 -72.429,16.421 -72.429,63.467l0,106.057c0,47.046 17.184,63.747 72.429,63.747c26.504,-0.236 52.882,-3.694 78.551,-10.301l12.263,78.505c-25.775,8.633 -62.589,14.201 -93.285,14.201c-120.306,-0 -165.714,-43.977 -165.714,-146.983l0,-104.395c0,-102.731 45.43,-146.705 165.714,-146.705c25.776,-0 65.062,4.734 93.285,13.927l-12.263,78.503Zm345.691,-31.122c-7.309,2.018 -14.629,4.041 -21.629,6.063c8.589,16.445 13.489,37.878 13.532,59.888l0,35.914c0,77.951 -47.853,124.997 -154.652,124.997c-7.379,0.138 -14.757,-0.143 -22.102,-0.831c-12.287,7.807 -22.1,18.939 -22.1,30.622c-0,10.306 6.119,15.037 20.851,16.425c41.296,4.55 64.451,7.029 105.427,11.422l5.042,0.54c62.615,6.977 82.248,37.579 82.248,92.431c-0,81.854 -29.471,113.863 -173.085,113.863c-44.202,-0 -104.344,-6.119 -147.305,-19.495l11.041,-71.549c42.133,10.675 85.41,16.19 128.876,16.421c76.098,0 92.061,-5.289 92.061,-30.627c0,-23.395 -7.344,-27.276 -36.814,-30.626c-28.01,-2.809 -45.168,-4.85 -66.487,-7.384c-12.308,-1.466 -26.007,-3.094 -43.982,-5.131c-54.021,-6.123 -74.879,-24.231 -74.879,-72.94c0,-31.478 20.877,-51.778 39.284,-65.154c-35.588,-21.156 -51.547,-56.515 -51.547,-103.006l-0,-35.915c1.224,-79.335 42.959,-127.213 153.427,-127.213c21.93,-0.202 43.795,2.415 65.06,7.783l117.838,-0l0,47.878c-6.513,1.871 -13.306,3.746 -20.105,5.624Zm-162.817,15.533c47.877,-0 65.059,17.252 65.059,53.444l0,28.962c0,37.023 -19.652,51.783 -65.059,51.783c-44.204,-0 -63.836,-13.929 -63.836,-51.783l0,-28.962c0,-36.192 17.182,-53.444 63.836,-53.444Zm3117.21,257.776c17.497,-0.488 34.847,-3.394 51.548,-8.638l12.287,79.611c-22.102,9.469 -65.06,16.145 -90.835,16.145c-76.1,-0 -115.389,-35.915 -115.389,-110.237l0,-231.609l-61.365,-0l-0,-82.961l61.365,-0l0,-103.285l104.325,-14.482l0,117.767l106.799,-0l-6.144,82.961l-100.655,-0l0,217.982c0,22.264 11.062,36.746 38.064,36.746Zm-650.572,-173.453c-0,84.623 -51.548,135.851 -166.94,135.851c-8.589,0 -17.182,0 -24.551,-0.762c-13.508,8.613 -24.552,20.601 -24.552,33.396c0,11.132 6.144,16.145 23.332,17.807c38.34,4.466 62.683,6.941 98.893,10.62c6.675,0.679 13.749,1.397 21.389,2.174c67.534,7.787 88.387,41.183 88.387,101.049c-0,88.805 -31.896,123.888 -187.792,123.888c-47.878,0 -114.143,-6.956 -160.796,-21.438l13.513,-77.668c45.727,11.698 92.735,17.68 139.938,17.807c82.243,0 99.43,-5.844 99.43,-33.401c0,-25.613 -8.593,-29.77 -40.514,-33.115c-16.572,-1.883 -29.894,-3.413 -42.549,-4.864c-22.949,-2.638 -43.718,-5.024 -77.733,-8.786c-58.916,-6.956 -82.248,-26.726 -82.248,-79.617c0,-34.251 23.332,-56.235 44.184,-70.997c-38.059,-23.114 -56.466,-61.524 -56.466,-111.92l-0,-39.264c1.219,-86.309 46.653,-138.369 168.16,-138.369c23.576,-0.142 47.081,2.666 69.959,8.361l128.875,0l0,52.336c-5.941,1.676 -12.282,3.356 -18.697,5.057c-9.499,2.516 -19.164,5.078 -27.955,7.738c9.813,17.808 14.733,40.902 14.733,64.854l-0,39.263Zm-96.981,-4.18l0,-31.735c0,-39.24 -18.406,-57.902 -69.959,-57.902c-51.548,0 -69.954,18.64 -69.954,57.902l-0,31.735c-0,40.926 20.851,56.239 69.954,56.239c49.102,0 69.959,-16.144 69.959,-56.239Zm-562.18,257.52l0,-288.977c31.92,-18.662 82.247,-34.806 108.018,-34.806c24.552,-0 33.145,11.133 33.145,33.12l0.001,290.663l104.324,-0l0,-301.772c0,-74.323 -24.551,-123.056 -93.286,-123.056c-50.328,-0 -117.837,18.938 -168.16,44.551c-13.513,-28.107 -38.064,-44.551 -78.553,-44.551c-47.878,-0 -114.163,18.084 -166.935,43.698l-9.818,-35.084l-79.794,0l0,416.194l104.325,-0l0,-288.957c38.059,-19.493 83.468,-34.806 109.244,-34.806c23.327,-0 33.14,11.133 33.14,33.12l-0,290.663l104.349,-0Zm-433.281,-151.44l0,-104.948c0,-85.456 -39.288,-164.26 -181.677,-164.26c-142.383,-0 -180.448,78.781 -180.448,164.26l0,104.948c0,85.454 38.065,164.259 180.448,164.259c142.389,-0.025 181.677,-78.805 181.677,-164.259Zm-104.348,-108.575l-0,112.199c-0,46.772 -22.102,71.555 -77.329,71.555c-55.222,-0 -77.323,-24.783 -77.323,-71.555l-0,-112.199c-0,-46.769 22.101,-71.551 77.323,-71.551c55.227,0 77.329,24.782 77.329,71.551Zm1595.7,-15.036c0,-104.393 -39.284,-150.609 -169.384,-150.609c-46.658,0 -103.106,7.784 -142.39,19.77l12.264,79.336c36.814,-7.506 77.329,-12.795 115.387,-12.795c66.285,-0 79.774,16.42 79.774,62.636l-0,43.421l-100.65,-0c-84.692,-0 -121.512,32.567 -121.512,117.211c-0,71.553 33.145,123.887 109.249,123.887c43.996,-0.098 87.033,-12.853 123.976,-36.746l7.369,28.107l85.917,0l0,-274.218Zm-104.325,178.439c-23.961,13.646 -50.981,21.019 -78.548,21.432c-33.145,-0 -41.733,-12.794 -41.733,-41.753c-0,-31.739 8.588,-41.207 42.958,-41.207l77.323,0l0,61.528Zm562.182,-57.622l-0,-21.158l230.775,0l-0,-88.804c-0,-89.912 -29.471,-167.584 -163.241,-167.584c-132.575,0 -171.839,74.323 -171.839,162.295l-0,110.238c-0,99.936 45.407,160.634 175.533,160.634c50.327,-0 106.793,-8.638 153.427,-26.445l-15.963,-78.505c-41.35,12.776 -84.367,19.347 -127.651,19.494c-63.859,0 -81.041,-19.494 -81.041,-70.165Zm-0,-125.551c-0,-39.263 17.182,-66.54 68.733,-66.54c51.548,-0 63.836,27.277 63.836,66.54l-0,20.601l-132.569,0l-0,-20.601Zm-2364.11,272.558c-27.002,9.47 -67.51,15.589 -101.88,15.589c-131.345,-0 -179.198,-47.902 -179.198,-160.033l0,-113.587c0,-111.923 47.853,-159.801 179.198,-159.801c29.451,0 71.184,5.289 101.88,15.313l-13.513,85.455c-28.221,-7.506 -65.06,-10.855 -85.918,-10.855c-60.14,-0 -77.323,17.806 -77.323,69.034l-0,115.528c-0,51.227 17.183,69.035 77.323,69.035c28.999,-0.016 57.874,-3.755 85.918,-11.133l13.513,85.455Z" style="fill:#ff1616;"/></g></g></svg>