<?xml version="1.0" encoding="UTF-8" standalone="no"?><!DOCTYPE svg PUBLIC "-//W3C//DTD SVG 1.1//EN" "http://www.w3.org/Graphics/SVG/1.1/DTD/svg11.dtd"><svg width="100%" height="100%" viewBox="0 0 3471 2717" version="1.1" xmlns="http://www.w3.org/2000/svg" xmlns:xlink="http://www.w3.org/1999/xlink" xml:space="preserve" xmlns:serif="http://www.serif.com/" style="fill-rule:evenodd;clip-rule:evenodd;stroke-linejoin:round;stroke-miterlimit:2;"><g><g><g><g><path d="M1750.9,1176.68c324.865,-0 587.798,-263.477 587.798,-588.342c0,-324.864 -262.933,-588.341 -587.798,-588.341c-324.864,-0 -588.341,263.477 -588.341,588.341c0,324.865 263.477,588.342 588.341,588.342" style="fill:#009fe3;"/><path d="M2184.96,1064.77c-111.91,121.688 -309.653,242.833 -563.352,242.833c-196.657,0 -366.151,-76.598 -473.715,-161.346c-642.123,67.364 -1119.64,162.976 -1119.64,162.976l0,260.217l3402.38,-0.543l0.543,-536.189c-0,-0 -580.193,-3.803 -1246.22,32.052" style="fill:#009fe3;"/><path d="M738.822,2680.95c-60.844,17.384 -150.481,34.768 -232.512,34.768c-281.404,-0 -506.31,-152.654 -506.31,-463.937c0,-292.812 235.228,-438.947 506.31,-438.947c89.637,-0 142.875,11.408 230.339,27.706l-0,229.795c-53.239,-17.384 -108.107,-32.595 -162.432,-32.595c-137.986,0 -242.29,76.599 -242.29,218.93c-0,149.938 96.698,225.993 231.425,225.993c59.214,-0 116.256,-12.495 175.47,-33.682l-0,231.969Z" style="fill:#003865;"/><path d="M1506.98,2067.07c-72.795,-26.076 -158.629,-43.46 -250.982,-43.46c-51.065,-0 -139.615,1.086 -139.615,57.584c-0,114.083 444.923,5.976 444.923,342.792c-0,233.598 -224.363,292.812 -412.328,292.812c-124.948,0 -227.623,-12.494 -348.768,-41.287l0,-225.992c87.464,37.484 193.941,57.584 290.64,57.584c76.598,0 145.591,-16.297 145.591,-59.757c0,-117.343 -444.923,-11.409 -444.923,-350.398c0,-240.117 242.29,-282.49 435.145,-282.49c90.723,-0 191.224,11.408 279.774,29.879l0,222.733l0.543,-0Z" style="fill:#003865;"/><path d="M2080.11,2506.02c128.207,-0 132.01,-147.765 133.096,-241.204c-1.086,-81.488 -9.778,-241.203 -133.096,-241.203c-120.059,-0 -129.837,160.259 -129.837,241.203c-0,93.439 13.581,241.204 129.837,241.204m-0,210.238c-295.529,0 -468.826,-153.74 -468.826,-451.442c-0,-292.812 173.297,-451.442 468.826,-451.442c295.528,0 472.628,158.63 472.628,451.442c0,297.702 -177.1,451.442 -472.628,451.442" style="fill:#003865;"/><path d="M2937.9,2162.14l81.487,-0c57.042,-0 118.972,-17.384 118.972,-83.661c0,-65.19 -53.238,-84.747 -111.366,-84.747l-89.093,-0l-0,168.408Zm-0,359.089l84.747,-0c59.214,-0 123.318,-22.273 123.318,-90.18c-0,-74.969 -60.301,-88.55 -121.145,-88.55l-86.92,0l-0,178.73Zm-305.308,-692.646l531.844,0c146.677,0 290.639,48.893 290.639,215.128c0,120.058 -61.931,183.619 -174.384,214.041l0,2.716c117.343,16.298 190.138,111.367 190.138,198.83c0,220.017 -172.21,242.29 -347.681,242.29l-490.556,0l0,-873.005Z" style="fill:#003865;"/><path d="M167.865,1749.81c-0,-0 102.131,87.463 256.414,88.55c145.592,0.543 253.699,-71.709 310.74,-133.097l-24.446,-19.014c-0,0 -73.882,81.488 -214.584,80.402c-148.851,-1.63 -233.599,-103.218 -233.599,-103.218l-94.525,86.377Z" style="fill:#003865;"/></g></g></g></g></svg>