<?xml version="1.0" encoding="UTF-8" standalone="no"?><!DOCTYPE svg PUBLIC "-//W3C//DTD SVG 1.1//EN" "http://www.w3.org/Graphics/SVG/1.1/DTD/svg11.dtd"><svg width="100%" height="100%" viewBox="0 0 2084 500" version="1.1" xmlns="http://www.w3.org/2000/svg" xmlns:xlink="http://www.w3.org/1999/xlink" xml:space="preserve" xmlns:serif="http://www.serif.com/" style="fill-rule:evenodd;clip-rule:evenodd;stroke-miterlimit:10;"><g><path d="M751.57,24.505c0,-0.014 0,-0.028 0,-0.042c0,-10.695 8.801,-19.496 19.496,-19.496c10.696,0 19.497,8.801 19.497,19.496c-0,10.695 -8.801,19.496 -19.497,19.496c-0.013,0 -0.027,0 -0.041,0c-10.664,-0.022 -19.432,-8.79 -19.455,-19.454Zm34.191,-0c0.014,-0.26 0.021,-0.521 0.021,-0.781c-0,-8.084 -6.652,-14.736 -14.736,-14.736c-8.084,-0 -14.736,6.652 -14.736,14.736c-0,0.26 0.007,0.521 0.021,0.781c-0.014,0.26 -0.021,0.52 -0.021,0.78c-0,8.084 6.652,14.736 14.736,14.736c8.084,0 14.736,-6.652 14.736,-14.736c-0,-0.26 -0.007,-0.52 -0.021,-0.78Zm-22.228,-11.094l8.279,0c5.298,0 8.278,1.822 8.278,6.458c0.012,0.147 0.018,0.294 0.018,0.442c-0,3.02 -2.485,5.505 -5.505,5.505c-0.186,-0 -0.371,-0.009 -0.556,-0.028l5.919,9.644l-4.139,0l-5.713,-9.479l-2.483,0l-0,9.479l-4.139,0l0.041,-22.021Zm4.139,9.438l3.643,-0c2.401,-0 4.512,-0.331 4.512,-3.312c-0,-2.98 -2.401,-2.98 -4.512,-2.98l-3.684,0l0.041,6.292Z" style="fill:#0140be;fill-rule:nonzero;"/><path d="M213.918,284.659l-129.642,-0l-0,-97.563l77.819,-0l-27.444,-51.617l-50.375,-0.042l-0,-77.777l166.813,0l0,-52.776l-251.089,-0.041l0,332.633l241.983,0l-28.065,-52.817Z" style="fill:#0140be;fill-rule:nonzero;"/><path d="M387.686,467.988l183.246,-332.551l-89.616,0l-118.259,221.08l-111.968,-221.08l-92.554,0l176.747,332.551l52.404,-0Z" style="fill:#0140be;fill-rule:nonzero;"/><path d="M542.247,0c-122.233,0 -209.697,70.368 -209.697,171.284c0,46.36 14.446,86.221 43.711,115.9l46.153,-86.304c-1.739,-9.741 -2.598,-19.619 -2.566,-29.513c-0,-70.989 43.256,-120.288 122.192,-120.288c78.936,-0 122.192,42.634 122.192,120.288c-0,73.679 -54.722,120.246 -122.192,120.246c-10.561,0.045 -21.105,-0.87 -31.5,-2.732l-27.071,49.009c19.428,3.185 39.09,4.736 58.778,4.636c115.9,0 209.448,-57.66 209.448,-171.242c-0,-113.582 -87.629,-171.284 -209.448,-171.284Z" style="fill:#0140be;fill-rule:nonzero;"/></g><path d="M943.235,47.006l-0,405.988" style="fill:none;fill-rule:nonzero;stroke:#000;stroke-width:27.34px;"/><g><g><g><rect x="1010.76" y="184.385" width="268.538" height="268.61" style="fill:#ffed00;"/><g><path d="M1387.78,243.876c14.922,-2.852 25.52,-16.488 24.602,-31.652c0,-24.027 -16.833,-34.601 -39.133,-34.601l-43.737,-0l-0,112.58l29.278,-0l-0,-43.162l27.623,43.162l36.76,-0l-35.393,-46.327Zm-28.774,-44.097l2.805,0c9.568,0 20.358,1.799 20.358,14.028c0,12.229 -10.79,14.387 -20.358,14.387l-2.805,-0l-0,-28.415Zm155.238,13.812l-27.192,-0l0,7.194c-6.091,-6.607 -14.757,-10.257 -23.739,-10c-21.022,0.515 -38.035,17.949 -38.035,38.978c0,0.676 0.018,1.351 0.053,2.026c-0.022,0.529 -0.032,1.059 -0.032,1.589c-0,21.326 17.338,38.97 38.662,39.343c9.078,0.496 17.814,-3.654 23.163,-11.007l-0,8.489l27.192,-0l-0.072,-76.612Zm-43.737,21.077c0.293,-0.015 0.586,-0.023 0.88,-0.023c9.116,-0 16.617,7.501 16.617,16.617c-0,0.248 -0.006,0.495 -0.017,0.743c0,9.589 -7.891,17.48 -17.48,17.48c-9.59,0 -17.481,-7.891 -17.481,-17.48c-0.011,-0.248 -0.016,-0.495 -0.016,-0.743c-0,-9.116 7.501,-16.617 16.617,-16.617c0.293,-0 0.587,0.008 0.88,0.023m90.639,-50.355c-0.078,8.311 -6.938,15.106 -15.25,15.106c-8.366,0 -15.25,-6.884 -15.25,-15.25c0,-8.366 6.884,-15.25 15.25,-15.25c8.351,0.039 15.211,6.899 15.25,15.25m-28.774,29.422l27.192,-0l-0,76.612l-27.264,-0l0.072,-76.612Zm74.957,76.612l-27.192,-0l0,-54.24l-9.567,0l-0,-22.372l9.567,-0l0,-9.711c-1.244,-9.653 1.571,-19.402 7.77,-26.905c6.642,-7.822 16.426,-12.305 26.688,-12.229c4.056,-0.122 8.075,0.821 11.653,2.734l0,23.379c-2.978,-1.498 -6.237,-2.355 -9.567,-2.518c-7.194,0 -9.352,4.173 -9.352,12.877l0,12.373l18.919,-0l0,22.372l-18.919,0l0,54.24Zm57.549,-0l-26.832,-0l0,-54.24l-9.568,0l0,-22.372l9.568,-0l0,-9.711c-1.21,-9.65 1.601,-19.385 7.769,-26.905c6.683,-7.809 16.482,-12.287 26.76,-12.229c4.079,-0.118 8.12,0.824 11.726,2.734l-0,23.379c-2.982,-1.488 -6.239,-2.345 -9.568,-2.518c-7.193,0 -9.423,4.173 -9.423,12.877l-0,12.373l18.991,-0l-0,22.372l-19.063,0l-0.36,54.24Zm106.825,-36.616c0,-26.112 -15.394,-42.514 -42.01,-42.514c-24.962,0 -42.371,15.394 -42.371,40.932c0,25.537 18.919,40.716 44.313,40.716c17.48,-0 34.673,-8.201 38.989,-26.257l-26.113,-0c-2.522,4.761 -7.647,7.592 -13.02,7.194c-0.637,0.081 -1.278,0.122 -1.92,0.122c-8.327,-0 -15.179,-6.852 -15.179,-15.179c0,-0.642 0.041,-1.283 0.122,-1.92l57.549,-0l-0.36,-3.094Zm-56.757,-12.804c1.931,-7.083 8.413,-12.033 15.754,-12.033c7.341,0 13.822,4.95 15.754,12.033l-31.508,-0Zm98.336,-56.614c0,8.366 -6.884,15.25 -15.25,15.25c-8.366,0 -15.251,-6.884 -15.251,-15.25c0,-8.366 6.885,-15.25 15.251,-15.25c8.366,-0 15.25,6.884 15.25,15.25m-28.774,29.422l27.192,-0l-0,76.612l-27.192,-0l-0,-76.612Zm95.747,19.71c-4.46,-2.296 -9.374,-3.574 -14.387,-3.74c-3.094,-0 -8.489,1.367 -8.489,5.251c0,5.179 8.489,5.971 12.229,6.69c12.733,2.59 22.301,8.489 22.301,22.732c-0,20.142 -18.416,28.774 -35.968,28.774c-10.92,-0.03 -21.624,-3.067 -30.933,-8.776l9.855,-18.991c6.377,4.457 13.827,7.139 21.581,7.769c3.453,0 8.56,-1.654 8.56,-5.827c0,-5.97 -8.56,-6.258 -17.048,-8.488c-10.096,-1.124 -17.644,-10.073 -17.049,-20.214c-0,-18.776 17.049,-27.12 33.81,-27.12c8.669,-0.189 17.278,1.479 25.249,4.892l-9.711,17.048Zm104.667,20.286c0,-26.112 -15.394,-42.514 -41.939,-42.514c-24.962,0 -42.442,15.394 -42.442,40.932c-0,25.537 18.991,40.716 44.385,40.716c17.48,-0 34.673,-8.201 38.989,-26.257l-26.257,-0c-2.469,4.777 -7.588,7.621 -12.948,7.194c-0.661,0.087 -1.327,0.131 -1.994,0.131c-8.326,0 -15.178,-6.852 -15.178,-15.178c-0,-0.646 0.041,-1.29 0.123,-1.93l57.549,-0l-0.288,-3.094Zm-56.758,-12.804c1.622,-7.466 8.567,-12.652 16.186,-12.086c7.333,-0.222 13.831,4.902 15.322,12.086l-31.508,-0Zm96.323,-17.337l0.36,0c5.197,-8.353 14.65,-13.134 24.458,-12.373c20.646,0 28.774,12.949 28.774,31.796l0,47.334l-26.904,-0l0,-37.335c0,-7.194 1.223,-20.142 -12.229,-20.142c-11.078,-0 -14.387,8.201 -14.387,17.768l-0,39.709l-27.12,-0l-0,-76.612l27.12,-0l-0.072,9.855Zm-650.519,139.125l2.087,-0c7.913,-0 16.977,0.647 15.322,10.934c-1.655,10.287 -9.783,10.934 -17.552,10.934l-3.309,0l3.452,-21.868Zm1.583,90.351c20.646,0 42.011,-7.769 45.751,-31.364c2.518,-15.754 -2.661,-26.616 -18.487,-28.774c9.055,-4.263 15.178,-13.049 16.042,-23.02c3.453,-21.581 -8.777,-29.278 -28.775,-29.278l-41.867,0l-17.84,112.436l45.176,0Zm-8.488,-46.686l3.021,-0c9.567,-0 24.242,-1.295 22.084,12.301c-1.942,12.445 -16.545,11.941 -25.177,11.941l-3.741,0l3.813,-24.242Zm136.678,27.12l4.244,19.566l31.221,0l-24.53,-112.723l-31.796,-0l-61.434,112.723l31.077,0l10.934,-19.566l40.284,-0Zm-4.388,-22.444l-24.314,-0l17.84,-35.968l6.474,35.968Zm66.829,-70.713l29.35,-0l42.802,69.13l10.862,-68.915l29.35,0l-17.48,112.508l-29.35,0l-42.73,-69.058l-10.935,69.058l-29.637,0l17.768,-112.723Zm196.889,-0l36.328,-0l-53.377,53.376l39.493,59.347l-37.91,0l-30.142,-48.844l-7.984,48.844l-29.278,0l17.84,-112.723l29.422,-0l-7.194,46.47l42.802,-46.47Z" style="fill:#1d1d1b;fill-rule:nonzero;"/><path d="M1008.1,177.551l275.084,-0l0,274.94l-275.084,-0l0,-274.94Zm7.194,267.746l260.121,0l-0,-259.977l-260.121,0l-0,259.977Zm129.485,-96.898l83.23,82.511l32.443,-32.371l-82.942,-82.727l16.186,-16.042l-0,-32.371l11.509,-11.51l0,26.689l11.51,11.15l40.428,-40.5l10.934,10.79c-0.51,-18.706 -8.248,-36.505 -21.58,-49.636c-6.561,-7.333 -15.948,-11.53 -25.788,-11.53c-9.223,-0 -18.073,3.687 -24.568,10.235l-39.133,39.062l9.711,9.711l-21.58,21.581l-21.581,-21.581l9.711,-9.711l-38.845,-39.062c-6.504,-6.529 -15.35,-10.203 -24.565,-10.203c-9.834,0 -19.218,4.184 -25.791,11.498c-13.124,13.202 -20.587,31.022 -20.789,49.636l10.502,-10.79l40.357,40.5l11.294,-11.222l-0,-26.617l11.509,11.51l0,32.156l15.97,16.257l-82.079,81.863l32.371,32.3l81.576,-81.576Z" style="fill:#1d1d1b;fill-rule:nonzero;"/></g></g></g><g><path d="M1036.52,79.804l-7.204,-0l-20.207,-60.428l7.929,-0l16.822,49.841l16.727,-49.841l6.624,-0l-20.691,60.428Z" style="fill-rule:nonzero;"/><path d="M1095.11,67.573c-2.745,8.075 -10.524,13.426 -19.047,13.1c-13.536,0 -20.497,-10.731 -20.497,-23.252c-0,-12.521 7.299,-23.495 20.69,-23.495c13.39,-0 19.918,11.603 19.336,24.171l-32.485,0c-0.213,3.488 0.435,6.974 1.885,10.152c2.347,4.266 6.932,6.84 11.795,6.624c5.464,0.114 10.377,-3.433 11.989,-8.655l6.334,1.355Zm-6.866,-14.504c0.094,-0.606 0.141,-1.221 0.141,-1.836c-0,-6.655 -5.475,-12.131 -12.129,-12.134c-7.176,0.363 -12.814,6.501 -12.569,13.682l24.557,0.288Z" style="fill-rule:nonzero;"/><path d="M1136.83,66.606c0.967,6.043 8.073,8.363 13.439,8.363c5.366,-0 10.828,-1.693 10.828,-7.396c0,-4.835 -4.833,-6.091 -8.702,-6.816l-7.299,-1.306c-6.864,-1.305 -13.101,-4.496 -13.101,-12.425c-0,-9.233 8.509,-13.1 16.678,-13.1c8.17,-0 15.518,2.997 17.742,11.264l-6.38,1.305c-1.821,-4.597 -6.486,-7.463 -11.41,-7.009c-4.06,-0 -9.668,1.546 -9.668,6.478c-0,4.931 4.06,5.897 8.025,6.526l6.477,1.16c3.306,0.375 6.5,1.428 9.379,3.094c3.394,2.227 5.422,6.044 5.366,10.104c0,10.152 -9.669,13.825 -18.612,13.825c-8.944,0 -17.209,-3.577 -19.627,-12.569l6.865,-1.498Z" style="fill-rule:nonzero;"/><path d="M1185.91,94.402l-6.864,-0l0,-59.315l6.235,0l0,8.846c2.063,-5.832 7.64,-9.734 13.827,-9.669c12.52,-0 17.693,12.425 17.693,23.157c0.141,5.305 -1.108,10.556 -3.626,15.228c-2.873,5.075 -8.234,8.264 -14.067,8.362c-5.578,0.076 -10.725,-3.072 -13.198,-8.072l-0,21.463Zm11.747,-54.385c-5.94,0.495 -10.823,4.997 -11.795,10.878l0,9.958c-0.556,7.065 4.739,13.359 11.795,14.02c3.791,-0.085 7.267,-2.165 9.137,-5.464c1.819,-3.757 2.651,-7.917 2.417,-12.085c0.048,-7.3 -2.272,-17.307 -11.554,-17.307Z" style="fill-rule:nonzero;"/><path d="M1243.96,33.926c13.149,-0 19.676,11.457 19.676,23.253c-0,12.521 -7.253,23.494 -20.788,23.494c-13.535,0 -19.337,-11.795 -19.337,-23.591c-0,-11.795 7.01,-23.156 20.449,-23.156Zm-10.296,35.387c2.029,3.499 5.78,5.659 9.825,5.659c4.357,-0 8.346,-2.507 10.237,-6.432c1.665,-3.58 2.429,-7.515 2.223,-11.458c0.233,-4.264 -0.756,-8.509 -2.853,-12.231c-2.11,-3.292 -5.756,-5.297 -9.667,-5.317c-4.286,0.043 -8.198,2.496 -10.104,6.332c-1.578,3.523 -2.338,7.358 -2.224,11.216c-0.137,4.223 0.742,8.418 2.563,12.231Z" style="fill-rule:nonzero;"/><rect x="1274.47" y="19.376" width="6.865" height="60.428"/><path d="M1329.72,79.804l-6.381,-0l0,-8.897c-2.21,5.682 -7.636,9.502 -13.729,9.669c-4.349,0.192 -8.56,-1.585 -11.457,-4.834c-2.65,-3.919 -3.894,-8.625 -3.529,-13.342l0,-27.313l6.864,0l-0,27.216c-0.159,2.804 0.355,5.605 1.499,8.17c1.506,2.554 4.238,4.149 7.203,4.205c3.626,-0.006 7.053,-1.684 9.282,-4.543c2.466,-3.235 3.685,-7.252 3.432,-11.313l-0,-23.735l6.864,0l-0.048,44.717Z" style="fill-rule:nonzero;"/><path d="M1349.84,94.402l-6.865,-0l0,-59.315l6.236,0l0,8.846c2.062,-5.832 7.64,-9.734 13.826,-9.669c12.473,-0 17.693,12.425 17.693,23.157c0.141,5.305 -1.108,10.556 -3.626,15.228c-2.893,5.055 -8.242,8.235 -14.067,8.362c-5.578,0.076 -10.725,-3.072 -13.197,-8.072l-0,21.463Zm11.794,-54.385c-5.939,0.495 -10.821,4.997 -11.794,10.878l-0,9.958c-0.583,7.073 4.727,13.383 11.794,14.02c3.789,-0.095 7.261,-2.172 9.138,-5.464c1.805,-3.761 2.621,-7.921 2.369,-12.085c-0,-7.3 -2.272,-17.307 -11.507,-17.307Z" style="fill-rule:nonzero;"/><path d="M1396.19,35.087l-0,10.442c2.126,-6.043 5.897,-11.699 13.149,-11.699l2.562,-0l-0,6.768l-1.402,0c-4.889,-0.1 -9.411,2.662 -11.554,7.057c-1.638,2.949 -2.408,6.301 -2.223,9.669l0,22.527l-6.866,0l0,-44.764l6.334,0Z" style="fill-rule:nonzero;"/><path d="M1446.47,52.055l0,-1.934c0,-7.832 -3.433,-10.829 -11.361,-10.829c-5.608,0 -10.974,1.74 -12.229,7.928l-6.431,-1.063c1.258,-9.33 11.12,-12.231 19.338,-12.231c4.993,-0.574 9.999,1.03 13.728,4.399c3.029,4.189 4.359,9.374 3.723,14.503l-0,17.356c-0.177,3.252 0.15,6.513 0.966,9.667l-6.864,0l-0.821,-8.363c-2.779,6.03 -9.043,9.722 -15.663,9.234c-8.364,-0 -15.567,-4.835 -15.567,-13.537c0.068,-5.398 3.314,-10.275 8.267,-12.423c5.472,-2.074 11.318,-2.979 17.161,-2.659l5.753,-0.048Zm0,5.221l-5.705,0c-7.058,0 -18.127,0.966 -18.127,10.2c-0,5.558 4.834,7.832 9.668,7.832c7.831,-0.176 14.178,-6.666 14.178,-14.501c0,-0.209 -0.005,-0.42 -0.014,-0.631l0,-2.9Zm-14.02,-26.54l-1.74,-3.529l17.694,-10.442l2.996,5.704l-18.95,8.267Z" style="fill-rule:nonzero;"/><path d="M1498.72,65.011c-0.8,8.866 -8.356,15.723 -17.259,15.662c-13.294,0 -18.998,-11.505 -18.998,-23.252c-0,-11.747 5.801,-23.495 19.337,-23.495c8.882,-0.256 16.497,6.608 17.162,15.469l-6.333,1.16c-0.026,-5.875 -4.808,-10.723 -10.684,-10.827c-9.33,-0 -11.94,9.667 -11.94,17.258c-0,7.589 2.175,17.79 11.505,17.79c6.719,-0 9.959,-4.834 11.119,-10.926l6.091,1.161Z" style="fill-rule:nonzero;"/><path d="M1516.13,27.11l-7.59,-0l0,-7.734l7.59,-0l-0,7.734Zm-0.387,52.694l-6.865,-0l0,-44.717l6.865,0l0,44.717Z" style="fill-rule:nonzero;"/><path d="M1559.83,66.606c0.967,6.043 8.073,8.363 13.439,8.363c5.366,-0 10.877,-1.693 10.877,-7.396c0,-4.835 -4.835,-6.091 -8.749,-6.816l-7.3,-1.306c-6.865,-1.305 -13.101,-4.496 -13.101,-12.425c0,-9.233 8.509,-13.1 16.727,-13.1c8.218,-0 15.469,2.997 17.693,11.264l-6.334,1.305c-1.837,-4.604 -6.52,-7.469 -11.456,-7.009c-4.062,-0 -9.669,1.546 -9.669,6.478c0,4.931 4.062,5.897 8.025,6.526l6.526,1.16c3.289,0.381 6.465,1.435 9.331,3.094c3.393,2.227 5.42,6.044 5.365,10.104c0,10.152 -9.668,13.825 -18.611,13.825c-8.943,0 -17.21,-3.577 -19.483,-12.569l6.72,-1.498Z" style="fill-rule:nonzero;"/></g></g></svg>