<?xml version="1.0" encoding="UTF-8" standalone="no"?><!DOCTYPE svg PUBLIC "-//W3C//DTD SVG 1.1//EN" "http://www.w3.org/Graphics/SVG/1.1/DTD/svg11.dtd"><svg width="100%" height="100%" viewBox="0 0 17363 2443" version="1.1" xmlns="http://www.w3.org/2000/svg" xmlns:xlink="http://www.w3.org/1999/xlink" xml:space="preserve" xmlns:serif="http://www.serif.com/" style="fill-rule:evenodd;clip-rule:evenodd;stroke-linejoin:round;stroke-miterlimit:2;"><g><path d="M3648,1127.15c4.231,0.293 8.475,0.439 12.72,0.439c100.036,0 182.349,-82.313 182.349,-182.356c0,-3.639 -0.113,-7.285 -0.326,-10.924c0,-117.226 -80.058,-197.278 -201.729,-197.278c-110.241,-0 -188.071,77.83 -188.071,201.729c0,123.899 73.379,188.39 195.057,188.39m-254.152,720.511c-0,77.836 87.05,133.113 234.134,133.113c199.514,0 311.97,-63.539 311.97,-149.312c0,-66.4 -52.735,-91.814 -160.748,-95.313l-263.679,-13.977c-82.599,39.078 -121.677,75.927 -121.677,127.079m-220.15,-371.059c-0,-85.141 63.533,-167.741 179.176,-227.142c-110.241,-66.72 -167.747,-174.414 -167.747,-314.512c-0,-245.57 183.627,-417.761 456.832,-417.761c112.696,-1.278 222.273,37.461 309.117,109.283c57.765,48.445 101.626,111.392 127.072,182.35c15.421,48.125 22.726,98.479 21.608,149c0,231.905 -169.65,383.446 -449.534,383.446c-44.034,0.699 -87.988,-4.005 -130.885,-13.977c-52.736,20.65 -78.155,48.285 -78.155,80.371c-0,80.378 110.241,73.392 317.691,89.592c309.749,22.871 440.633,82.599 440.633,311.97c0,236.356 -195.056,371.691 -564.532,371.691c-337.384,0 -508.297,-105.471 -508.297,-300.534c-0,-112.457 66.713,-174.407 209.04,-220.15c-108.013,-53.055 -158.846,-101.028 -158.846,-183.627" style="fill:#003c71;fill-rule:nonzero;"/><path d="M4199.82,456.826c-0.692,81.775 -68.164,148.681 -149.945,148.681c-82.26,-0 -149.951,-67.691 -149.951,-149.952c-0,-82.26 67.684,-149.944 149.944,-149.951c82.261,0 149.952,67.691 149.952,149.951" style="fill:#003c71;fill-rule:nonzero;"/><rect x="4341.51" y="77.191" width="285.28" height="1673.26" style="fill:#003c71;"/><path d="M5302.2,1529.34c154.395,0 227.781,-127.072 227.781,-381.224c-0,-254.146 -74.344,-380.586 -227.781,-380.586c-153.444,-0 -227.788,124.218 -227.788,379.634c0,255.423 75.927,381.225 227.788,381.225m-0,-1008.02c322.129,-0 515.602,230.003 515.602,625.843c-0,395.834 -197.917,627.107 -515.602,627.107c-317.685,0 -515.609,-232.544 -515.609,-626.156c0,-393.612 193.466,-625.843 515.609,-625.843" style="fill:#003c71;fill-rule:nonzero;"/><path d="M6468.11,1533.79c158.839,0 254.152,-135.655 254.152,-386.627c-0,-250.972 -98.799,-391.077 -254.152,-391.077c-78.149,0 -142.64,34.315 -216.338,101.028l-0,571.837c71.469,69.261 135.96,103.562 214.116,103.562m-492.417,-63.527l-0,-1391.79l281.787,0l-0,582.003c69.44,-90.324 178.411,-141.729 292.278,-137.877c259.867,0 460.325,236.995 460.325,625.843c0,375.191 -195.695,626.156 -469.539,626.156c-128.988,0 -228.1,-46.063 -326.899,-151.847l-29.864,128.976l-222.385,-0c9.214,-128.976 13.977,-222.379 13.977,-280.836" style="fill:#003c71;fill-rule:nonzero;"/><path d="M7374.82,1417.51c-0.412,4.005 -0.618,8.029 -0.618,12.054c-0,64.485 53.061,117.546 117.546,117.546c4.025,0 8.043,-0.206 12.054,-0.618c89.905,-0 177.267,-41.3 264.637,-127.073l0,-256.055c-266.859,36.849 -393.619,112.77 -393.619,254.146m400.604,225.558c-103.435,77.89 -229.51,119.948 -358.984,119.769c-202.687,-0 -322.136,-121.997 -322.136,-322.136c-0,-269.4 222.379,-412.998 683.342,-469.539l0,-93.716c0,-87.682 -59.721,-138.203 -170.281,-138.203c-105.805,-1.69 -205.561,50.401 -264.63,138.203l-193.473,-121.997c101.446,-156.723 255.635,-234.979 462.553,-234.766c283.377,0 442.223,135.648 442.223,356.763l0,708.755c1.67,54.945 7.837,109.663 18.421,163.61l-271.621,-0l-25.414,-106.743Z" style="fill:#003c71;fill-rule:nonzero;"/><rect x="8295.42" y="77.191" width="285.28" height="1673.26" style="fill:#003c71;"/><path d="M8994.01,1428c119.761,151.854 228.1,227.781 361.526,227.781c197.917,0 315.144,-176.954 315.144,-506.075c-0,-329.121 -117.227,-506.395 -315.144,-506.395c-133.426,0 -241.765,73.705 -361.526,225.559l0,559.13Zm-142.647,-881.585l105.798,-0l36.849,156.624l11.429,-0c112.783,-119.775 232.551,-179.496 361.533,-179.496c262.408,0 446.348,227.781 446.348,623.621c-0,395.841 -183.94,623.941 -446.348,623.941c-128.982,0 -248.75,-57.825 -361.533,-177.274l-11.429,0l0,593.758l-142.647,-0l0,-1641.17Z" style="fill:#003c71;fill-rule:nonzero;"/><path d="M10639.4,1073.45c-405.055,89.911 -591.536,165.832 -591.536,370.747c0,133.426 75.934,214.116 200.146,214.116c131.204,0 250.972,-71.483 391.39,-214.116l-0,-370.747Zm-0,518.15c-131.204,121.99 -262.408,181.711 -409.499,181.711c-198.236,0 -324.67,-135.647 -324.67,-322.129c-0,-278.607 232.544,-402.825 736.391,-492.736l-0,-117.227c-0,-117.546 -98.799,-197.917 -264.63,-197.917c-131.204,0 -227.788,63.54 -299.264,193.154l-110.235,-63.533c95.3,-165.519 220.789,-246.209 427.927,-246.209c227.774,0 386.62,135.967 386.62,315.463l-0,746.882c2.854,54.126 9.752,107.966 20.649,161.061l-140.098,0c-12.081,-52.21 -19.845,-105.345 -23.191,-158.839" style="fill:#003c71;fill-rule:nonzero;"/><path d="M10908.7,546.411l143.592,-0l354.221,1024.22l352.312,-1024.22l135.661,-0l-453.346,1298.39c-82.912,239.217 -179.489,338.023 -386.62,338.023c-41.566,0.046 -83.085,-2.928 -124.219,-8.895l0,-115.317c33.317,6.22 67.133,9.3 101.028,9.207c172.823,-0 250.965,-95.306 297.035,-324.358l-419.664,-1197.05Z" style="fill:#003c71;fill-rule:nonzero;"/><path d="M12037.1,546.411l131.204,-0l0,186.481l9.214,-0c127.08,-137.87 260.193,-207.124 386.634,-207.124c135.967,-0 232.544,69.254 287.821,207.124l16.199,-0c130.891,-137.87 257.645,-207.124 386.627,-207.124c202.474,-0 303.707,128.869 303.707,386.62l0,837.737l-136.286,0l-0,-786.904c-0,-211.901 -36.849,-313.241 -207.131,-313.241c-110.554,-0 -230.329,73.698 -347.549,222.379l-0,876.815l-138.196,-0l-0,-785.953c-0,-211.901 -36.849,-313.241 -207.131,-313.241c-110.554,-0 -227.787,73.698 -347.549,222.379l0,876.815l-137.564,-0l0,-1202.76Z" style="fill:#003c71;fill-rule:nonzero;"/><path d="M14229.2,641.085c-188.703,0 -322.129,142.64 -345.32,400.291l663.005,0c-6.985,-260.192 -127.072,-400.291 -315.463,-400.291m455.881,819.316c-106.103,216.345 -241.751,310.7 -453.652,310.7c-298.944,0 -490.189,-237.314 -490.189,-614.727c0,-398.062 197.911,-632.835 485.738,-632.835c287.822,0 451.118,200.139 451.118,582.322l0,39.071l-794.222,-0c2.548,333.891 128.988,510.845 357.088,510.845c154.076,0 254.146,-75.927 338.016,-254.152l106.103,58.776Z" style="fill:#003c71;fill-rule:nonzero;"/><path d="M14864.6,546.411l142.64,-0l-0,188.71c142.64,-140.099 283.058,-209.353 416.49,-209.353c216.445,-0 324.677,128.869 324.677,386.62l0,837.737l-140.418,0l0,-786.904c0,-211.901 -41.619,-313.241 -225.558,-313.241c-119.775,-0 -246.528,73.698 -375.191,222.379l-0,876.815l-142.64,-0l0,-1202.76Z" style="fill:#003c71;fill-rule:nonzero;"/><path d="M16335.8,1660.54c43.129,-2.634 85.793,-10.418 127.08,-23.191l-0,115.324c-52.53,14.31 -106.643,21.994 -161.068,22.872c-165.831,0 -236.995,-82.912 -236.995,-257.645l-0,-853.943l-179.496,-0l0,-117.546l179.496,-0l-0,-356.763l140.418,0l-0,356.763l250.972,-0l-0,117.546l-250.972,-0l-0,860.929c-0,91.82 41.3,135.654 131.204,135.654" style="fill:#003c71;fill-rule:nonzero;"/><path d="M16968.6,1658.32c149.632,0 248.75,-95.306 248.75,-222.378c-0,-144.869 -113.102,-177.267 -311.013,-250.972c-243.674,-89.585 -370.42,-158.853 -370.42,-342.786c-0,-183.94 149.625,-319.914 388.848,-319.914c156.611,0 294.813,75.934 400.598,222.386l-101.341,73.379c-92.132,-121.99 -190.612,-179.489 -324.357,-179.489c-133.746,-0 -216.345,80.69 -216.345,197.917c-0,128.982 117.227,158.839 317.685,234.772c239.536,89.905 361.526,163.29 361.526,354.541c-0,200.139 -161.068,345.327 -409.818,345.327c-188.703,0 -333.565,-75.933 -453.339,-237.314l105.797,-85.141c103.562,138.189 222.379,209.672 363.748,209.672" style="fill:#003c71;fill-rule:nonzero;"/><path d="M1844.49,170.595c-0,93.583 -77.018,170.594 -170.601,170.594c-93.583,0 -170.595,-77.011 -170.595,-170.594c0,-93.59 77.012,-170.601 170.595,-170.601c93.583,-0 170.601,77.011 170.601,170.601" style="fill:#003c71;fill-rule:nonzero;"/><path d="M1168.45,979.107c134.377,0 222.379,-86.731 222.379,-222.385c0,-135.648 -91.494,-225.559 -230.322,-225.559c-127.079,0 -216.032,89.592 -216.032,231.912c-0,137.245 84.196,216.032 223.975,216.032" style="fill:#003c71;fill-rule:nonzero;"/><path d="M1318.72,1677.7l-303.076,-15.88c-95.299,44.792 -139.779,87.043 -139.779,144.862c0,89.591 100.07,153.124 268.761,153.124c229.371,0 358.353,-74.024 358.353,-171.552c0,-76.247 -60.679,-105.472 -184.259,-110.554" style="fill:#003c71;fill-rule:nonzero;"/><path d="M1150.03,2191.4c-387.578,-0 -585.182,-121.039 -585.182,-345.008c0,-129.294 76.559,-200.458 239.855,-254.145c-123.899,-60.686 -181.717,-115.956 -181.717,-210.63c-0,-94.674 71.163,-192.515 205.541,-261.144c-127.066,-76.24 -192.515,-200.139 -192.515,-360.888c-0,-282.106 210.943,-479.704 524.503,-479.704c129.674,-1.064 255.602,43.988 355.173,127.073c65.755,55.783 115.537,128.037 144.23,209.353c17.869,55.277 26.351,113.155 25.093,171.233c0,265.588 -195.056,439.362 -516.553,439.362c-50.553,0.932 -101.034,-4.404 -150.27,-15.88c-60.673,23.824 -89.592,55.597 -89.592,92.446c0,92.126 127.079,84.183 363.762,102.611c355.804,26.364 505.756,95.306 505.756,358.665c-0,271.309 -223.976,426.656 -648.084,426.656m716.067,-1917.56c-38.146,70.445 -112.091,114.492 -192.202,114.492c-119.901,0 -218.567,-98.659 -218.567,-218.56l0,-0.446c0.113,-25.107 4.404,-50.021 12.707,-73.711c-91.142,-21.921 -184.559,-32.998 -278.295,-32.998c-652.674,0 -1189.74,537.064 -1189.74,1189.74c-0,652.661 537.063,1189.74 1189.74,1189.74c652.208,-0 1189.06,-536.299 1189.74,-1188.51c0.532,-390.818 -191.736,-757.752 -513.38,-979.745" style="fill:#003c71;fill-rule:nonzero;"/></g></svg>