<?xml version="1.0" encoding="UTF-8" standalone="no"?><!DOCTYPE svg PUBLIC "-//W3C//DTD SVG 1.1//EN" "http://www.w3.org/Graphics/SVG/1.1/DTD/svg11.dtd"><svg width="100%" height="100%" viewBox="0 0 4167 814" version="1.1" xmlns="http://www.w3.org/2000/svg" xmlns:xlink="http://www.w3.org/1999/xlink" xml:space="preserve" xmlns:serif="http://www.serif.com/" style="fill-rule:evenodd;clip-rule:evenodd;stroke-miterlimit:10;"><g><path d="M2772.22,181.463l0,630.343" style="fill:none;fill-rule:nonzero;stroke:#000;stroke-width:9.17px;"/><rect x="2942.27" y="177.977" width="1224.39" height="634.833" style="fill:#bce4fa;"/><path d="M3932.01,304.666c8.659,-0.057 16.959,3.513 22.873,9.837c12.66,12.915 12.66,33.883 0,46.799c-5.992,6.207 -14.294,9.666 -22.921,9.551c-8.638,0.173 -16.962,-3.295 -22.922,-9.551c-12.629,-12.91 -12.629,-33.841 -0,-46.751c5.944,-6.374 14.303,-9.963 23.018,-9.885m107.922,131.513l-0,-20.2c-0,-18.94 -15.586,-34.525 -34.526,-34.525l-146.842,-0c-18.947,-0 -34.546,15.577 -34.573,34.525l0,75.928l163.794,-0l0,11.556l-163.794,-0l0,20.009c0.027,18.948 15.626,34.525 34.573,34.525l146.795,-0c18.939,-0 34.525,-15.586 34.525,-34.525l-0,-75.785l-163.746,0l-0,-11.508l163.794,-0Z" style="fill:#e30613;fill-rule:nonzero;"/><path d="M3144.36,380.212c36.722,0 48.852,6.638 48.852,21.823l-0,16.81l-48.852,-0c-23.877,-0 -29.798,10.505 -29.798,51.095c-0,40.59 5.778,51.096 29.798,51.096l48.852,0l-0,16.762c-0,15.186 -12.13,21.823 -48.852,21.823c-48.851,-0 -75.355,-26.79 -75.355,-89.728c-0,-62.939 26.504,-89.681 75.355,-89.681m-6.638,-7.975c-3.295,-0 -5.205,-0.86 -8.261,-4.776l-22.063,-28.651c-0.873,-1.2 -1.28,-2.677 -1.146,-4.154l17.144,-0c3.582,-0 4.776,0.859 8.834,4.154l11.318,10.505l11.318,-10.505c3.867,-3.295 5.252,-4.154 8.834,-4.154l17.096,-0c0.132,1.469 -0.257,2.94 -1.098,4.154l-22.063,28.651c-1.664,3.008 -4.872,4.852 -8.308,4.776l-11.605,-0Zm69.338,25.118c-0,-10.505 4.775,-15.759 15.185,-15.759l96.605,0l0,21.824c0,10.506 -5.252,15.425 -15.71,15.425l-51.909,-0l0,31.755l57.974,-0l-0,35.911l-57.974,0l0,34.525l69.004,0l0,21.537c0,10.506 -5.252,15.472 -15.71,15.472l-82.28,-0c-10.505,-0 -15.185,-5.253 -15.185,-15.758l-0,-144.932Zm186.238,-17.143c36.722,0 55.776,4.154 55.776,21.25l-0,17.383l-50.141,-0c-13.515,-0 -17.382,3.58 -17.382,10.791c-0,21.251 76.739,16.81 76.739,76.406c0,28.651 -16.284,53.579 -65.995,53.579c-32.568,-0 -58.212,-5.252 -58.212,-21.251l0,-17.382l59.311,0c12.176,0 17.954,-3.868 17.954,-12.463c0,-23.16 -76.404,-18.767 -76.404,-80.035c-0,-27.076 17.954,-48.326 58.498,-48.326m128.36,82.183l44.172,-72.871c4.154,-7.163 6.637,-8.022 12.415,-8.022l41.403,-0c0.057,2.74 -0.708,5.435 -2.197,7.735l-50.905,77.552l53.293,83.664c1.524,2.301 2.383,4.978 2.483,7.735l-40.017,0c-8.309,0 -10.793,-0.572 -15.472,-8.022l-45.27,-72.585l-0,80.607l-44.172,0l0,-160.928c0,-10.506 4.775,-15.758 15.186,-15.758l28.986,-0l0.095,80.893Zm200.564,-81.467c7.497,0 11.079,0.86 12.702,7.211l41.164,163.125c0.499,2.276 0.771,4.595 0.811,6.924l-36.149,0c-7.449,0 -9.551,-0.572 -11.031,-6.637l-8.595,-35.338l-41.116,0l-8.023,35.338c-1.385,6.065 -3.581,6.637 -11.031,6.637l-35.91,0c0.051,-2.331 0.339,-4.65 0.859,-6.924l41.116,-163.125c1.672,-6.351 5.253,-7.211 12.702,-7.211l42.501,0Zm-35.624,102.145l27.362,0l-13.275,-56.54l-1.099,-0l-12.988,56.54Zm28.652,-115.086c-1.959,2.895 -5.356,4.493 -8.834,4.155l-17.144,0c-0.13,-1.464 0.241,-2.929 1.05,-4.155l22.11,-28.651c1.657,-3.016 4.87,-4.863 8.309,-4.776l16.81,0c1.957,0 3.056,0.859 3.056,1.958c-0,1.098 -0.573,2.196 -2.77,4.775l-22.587,26.694Zm-621.796,247.696c12.177,0 20.439,0.287 20.439,6.352l-0,3.582l-20.82,-0c-6.256,-0 -10.22,2.769 -10.22,7.162c-0,14.326 34.765,10.22 34.765,33.428c-0,11.317 -7.45,19.913 -26.933,19.913c-11.318,-0 -21.824,-0 -21.824,-5.969l-0,-3.821l23.208,0c8.309,0 12.177,-2.865 12.177,-9.121c0,-13.084 -34.668,-10.458 -34.668,-33.666c-0,-11.079 8.977,-17.812 23.876,-17.812m46.273,90.445l-12.512,0l0,-89.777l6.209,0c4.44,0 6.256,2.388 6.256,5.826l-0,2.198c4.416,-5.364 10.961,-8.54 17.906,-8.692c16.332,0 23.878,13.372 23.878,35.195c-0,21.823 -7.594,35.242 -23.878,35.242c-6.964,-0.119 -13.528,-3.322 -17.906,-8.74l0.047,28.748Zm13.801,-80.512c-5.16,0.131 -10.087,2.194 -13.801,5.779l0,38.679c3.699,3.614 8.632,5.696 13.801,5.827c10.745,-0 15.186,-8.835 15.186,-25.023c-0,-16.189 -4.441,-25.262 -15.186,-25.262m36.817,25.262c0,-19.102 6.352,-35.195 28.031,-35.195c21.681,0 28.032,15.902 28.032,35.195c-0,19.291 -6.208,35.242 -28.032,35.242c-21.822,-0 -28.031,-15.903 -28.031,-35.242m42.978,-0c0,-17.001 -3.295,-25.931 -15.185,-25.931c-11.89,0 -15.186,8.93 -15.186,25.931c-0,16.999 3.486,25.978 15.186,25.978c11.699,-0 15.185,-8.979 15.185,-25.978m38.203,-40.447c-1.671,-0 -2.483,-0.382 -4.107,-2.34l-10.935,-12.989c-0.435,-0.592 -0.64,-1.323 -0.573,-2.054l5.539,-0c1.728,-0.097 3.396,0.674 4.442,2.054l7.449,6.924l7.593,-6.924c1.04,-1.387 2.71,-2.16 4.441,-2.054l5.491,-0c0.06,0.725 -0.125,1.447 -0.525,2.054l-11.079,13.131c-1.623,1.959 -2.483,2.34 -4.154,2.34l-3.582,-0.142Zm-13.514,74.972l-0,-69.098l6.208,-0c4.107,-0 5.921,3.342 6.208,8.595c4.124,-5.739 10.745,-9.183 17.811,-9.265c2.34,0 4.776,0.526 4.776,3.439l-0,8.835l-3.438,-0c-6.874,-0.553 -13.706,1.53 -19.101,5.825l-0,51.621l-12.464,0.048Zm53.293,-76.787l-12.178,-0l0,-7.879c0,-4.108 1.529,-6.448 5.635,-6.448l6.782,0l-0.239,14.327Zm-12.417,7.735l6.591,0c4.298,0 5.826,2.388 5.826,6.543l-0,62.461l-12.178,-0l-0.239,-69.004Zm42.979,0l14.899,0l-0,9.265l-14.661,0l0,42.118c0,5.921 0.669,8.167 5.11,8.167l9.551,-0l-0,3.151c-0,5.396 -4.775,6.638 -11.891,6.638c-14.326,-0 -15.472,-7.736 -15.472,-17.956l-0,-42.118l-8.691,0l0,-6.877l8.691,-2.388l4.441,-11.03c1.385,-2.914 2.34,-4.155 4.775,-4.155l3.486,-0l-0.238,15.185Zm69.672,59.931l-0,3.199c-0,5.397 -7.307,6.639 -22.54,6.639c-21.536,-0 -28.127,-15.903 -28.127,-35.242c0,-19.341 7.02,-35.195 28.031,-35.195c16.953,0 25.787,10.506 25.787,25.692c0.031,4.243 -0.193,8.485 -0.668,12.702l-40.209,-0c0,15.997 5.397,22.205 16.619,22.205l21.107,0Zm-9.551,-30.8l0,-5.636c0,-6.637 -2.627,-14.899 -13.132,-14.899c-9.55,0 -14.612,6.065 -15.186,20.535l28.318,-0Zm36.436,39.921l-12.415,-0l-0,-84.714c-0,-4.107 1.527,-6.447 5.682,-6.447l6.733,-0l0,91.161Zm15.186,-0l-0,-69.098l6.208,-0c4.441,-0 6.255,2.386 6.255,5.682l-0,2.34c4.81,-5.517 11.782,-8.689 19.102,-8.692c13.418,0 20.056,8.262 20.056,21.107l0,48.613l-12.321,-0l0,-48.039c0,-8.166 -4.775,-11.605 -12.559,-11.605c-5.301,0.24 -10.362,2.298 -14.326,5.826l0,53.818l-12.415,0.048Zm109.068,-0c-0.279,0.046 -0.562,0.069 -0.845,0.069c-2.882,0 -5.254,-2.372 -5.254,-5.253c0,-0.198 0.012,-0.397 0.035,-0.594l-0,-2.245c-4.866,5.451 -11.798,8.622 -19.102,8.74c-12.416,-0 -20.152,-7.594 -20.152,-19.102c-0,-17.382 18.242,-21.823 39.493,-22.778l-0,-6.638c-0,-9.551 -6.352,-12.033 -14.757,-12.033l-19.913,-0l-0,-3.582c-0,-6.065 7.211,-6.352 21.681,-6.352c15.901,0 25.261,6.925 25.261,21.394l-0,48.326l-6.447,0.048Zm-6.064,-33.427c-19.102,0.43 -26.504,4.775 -26.504,13.419c-0,7.592 5.397,10.362 12.416,10.362c5.232,-0.103 10.249,-2.126 14.088,-5.683l-0,-18.098Z" style="fill:#00497b;fill-rule:nonzero;"/><path d="M3097.13,62.271l-7.116,-0l-19.961,-59.692l7.833,-0l16.617,49.234l16.523,-49.234l6.543,-0l-20.439,59.692Z" style="fill-rule:nonzero;"/><path d="M3155.01,50.189c-2.711,7.977 -10.395,13.263 -18.815,12.941c-13.371,-0 -20.247,-10.601 -20.247,-22.969c-0,-12.369 7.21,-23.209 20.438,-23.209c13.227,-0 19.675,11.462 19.101,23.877l-32.09,0c-0.21,3.445 0.43,6.889 1.862,10.028c2.319,4.214 6.848,6.757 11.652,6.543c5.397,0.113 10.25,-3.391 11.843,-8.549l6.256,1.338Zm-6.782,-14.327c0.093,-0.599 0.139,-1.206 0.139,-1.814c-0,-6.574 -5.408,-11.983 -11.981,-11.986c-7.088,0.359 -12.658,6.422 -12.416,13.515l24.258,0.285Z" style="fill-rule:nonzero;"/><path d="M3196.22,49.234c0.955,5.969 7.975,8.261 13.275,8.261c5.301,0 10.697,-1.672 10.697,-7.306c0,-4.776 -4.775,-6.017 -8.596,-6.733l-7.211,-1.29c-6.78,-1.289 -12.941,-4.441 -12.941,-12.273c0,-9.121 8.405,-12.941 16.475,-12.941c8.07,-0 15.329,2.961 17.526,11.127l-6.303,1.289c-1.798,-4.541 -6.407,-7.372 -11.271,-6.924c-4.01,0 -9.55,1.528 -9.55,6.399c0,4.871 4.011,5.826 7.927,6.447l6.399,1.146c3.265,0.37 6.42,1.41 9.264,3.056c3.353,2.2 5.356,5.971 5.301,9.981c-0,10.028 -9.551,13.657 -18.385,13.657c-8.835,-0 -17,-3.534 -19.388,-12.416l6.781,-1.48Z" style="fill-rule:nonzero;"/><path d="M3244.7,76.691l-6.78,0l-0,-58.592l6.159,-0l0,8.738c2.038,-5.761 7.547,-9.615 13.658,-9.551c12.368,0 17.478,12.274 17.478,22.875c0.139,5.24 -1.095,10.427 -3.582,15.042c-2.838,5.014 -8.134,8.164 -13.896,8.261c-5.51,0.075 -10.594,-3.035 -13.037,-7.974l0,21.201Zm11.604,-53.722c-5.867,0.489 -10.691,4.936 -11.651,10.745l-0,9.837c-0.549,6.979 4.681,13.196 11.651,13.849c3.745,-0.084 7.179,-2.138 9.026,-5.397c1.797,-3.711 2.619,-7.821 2.387,-11.938c0.048,-7.211 -2.244,-17.096 -11.413,-17.096Z" style="fill-rule:nonzero;"/><path d="M3302.05,16.952c12.989,-0 19.436,11.318 19.436,22.97c-0,12.368 -7.164,23.208 -20.534,23.208c-13.371,-0 -19.102,-11.652 -19.102,-23.304c0,-11.651 6.925,-22.874 20.2,-22.874Zm-10.171,34.956c2.005,3.456 5.71,5.59 9.706,5.59c4.304,0 8.244,-2.476 10.112,-6.354c1.645,-3.536 2.399,-7.423 2.196,-11.318c0.23,-4.212 -0.747,-8.405 -2.818,-12.082c-2.085,-3.252 -5.686,-5.232 -9.55,-5.252c-4.233,0.042 -8.098,2.465 -9.98,6.255c-1.559,3.48 -2.31,7.268 -2.197,11.079c-0.136,4.172 0.733,8.315 2.531,12.082Z" style="fill-rule:nonzero;"/><rect x="3332.18" y="2.579" width="6.781" height="59.692"/><path d="M3386.76,62.271l-6.303,-0l0,-8.788c-2.183,5.612 -7.543,9.386 -13.562,9.551c-4.296,0.189 -8.455,-1.566 -11.317,-4.775c-2.618,-3.872 -3.847,-8.52 -3.486,-13.18l-0,-26.98l6.78,-0l0,26.884c-0.157,2.77 0.351,5.537 1.481,8.071c1.488,2.523 4.186,4.098 7.115,4.154c3.582,-0.006 6.967,-1.664 9.169,-4.488c2.436,-3.196 3.64,-7.164 3.39,-11.175l0,-23.446l6.781,-0l-0.048,44.172Z" style="fill-rule:nonzero;"/><path d="M3406.63,76.691l-6.781,0l-0,-58.592l6.16,-0l0,8.738c2.037,-5.761 7.547,-9.615 13.657,-9.551c12.321,0 17.478,12.274 17.478,22.875c0.139,5.24 -1.095,10.427 -3.582,15.042c-2.858,4.994 -8.142,8.135 -13.896,8.261c-5.51,0.075 -10.594,-3.035 -13.036,-7.974l-0,21.201Zm11.651,-53.722c-5.867,0.489 -10.69,4.936 -11.651,10.745l-0,9.837c-0.576,6.987 4.67,13.22 11.651,13.849c3.742,-0.094 7.172,-2.145 9.026,-5.397c1.783,-3.715 2.589,-7.825 2.34,-11.938c0,-7.211 -2.244,-17.096 -11.366,-17.096Z" style="fill-rule:nonzero;"/><path d="M3452.42,18.099l0,10.315c2.101,-5.97 5.826,-11.557 12.989,-11.557l2.531,0l0,6.686l-1.385,-0c-4.829,-0.099 -9.296,2.629 -11.413,6.971c-1.618,2.913 -2.379,6.224 -2.196,9.551l-0,22.253l-6.782,0l0,-44.219l6.256,-0Z" style="fill-rule:nonzero;"/><path d="M3502.09,34.86l0,-1.91c0,-7.737 -3.391,-10.697 -11.223,-10.697c-5.539,0 -10.84,1.719 -12.08,7.831l-6.352,-1.05c1.242,-9.216 10.984,-12.082 19.102,-12.082c4.932,-0.567 9.877,1.018 13.561,4.346c2.992,4.138 4.306,9.259 3.677,14.326l0,17.144c-0.174,3.213 0.149,6.434 0.955,9.55l-6.781,0l-0.811,-8.261c-2.745,5.956 -8.933,9.603 -15.472,9.121c-8.262,-0 -15.377,-4.776 -15.377,-13.372c0.067,-5.332 3.273,-10.15 8.166,-12.272c5.405,-2.048 11.18,-2.942 16.952,-2.626l5.683,-0.048Zm0,5.158l-5.636,-0c-6.972,-0 -17.906,0.954 -17.906,10.075c-0,5.491 4.775,7.737 9.55,7.737c7.736,-0.174 14.006,-6.585 14.006,-14.324c-0,-0.207 -0.005,-0.415 -0.014,-0.624l0,-2.864Zm-13.849,-26.217l-1.719,-3.486l17.478,-10.315l2.96,5.635l-18.719,8.166Z" style="fill-rule:nonzero;"/><path d="M3553.7,47.658c-0.79,8.758 -8.254,15.532 -17.048,15.472c-13.132,-0 -18.767,-11.365 -18.767,-22.969c0,-11.604 5.73,-23.209 19.102,-23.209c8.773,-0.253 16.296,6.528 16.952,15.281l-6.255,1.146c-0.026,-5.804 -4.75,-10.593 -10.554,-10.696c-9.217,0 -11.795,9.55 -11.795,17.048c-0,7.497 2.149,17.573 11.365,17.573c6.637,0 9.838,-4.775 10.984,-10.792l6.016,1.146Z" style="fill-rule:nonzero;"/><path d="M3570.9,10.219l-7.497,-0l-0,-7.64l7.497,-0l0,7.64Zm-0.382,52.052l-6.781,-0l0,-44.172l6.781,-0l0,44.172Z" style="fill-rule:nonzero;"/><path d="M3614.07,49.234c0.955,5.969 7.975,8.261 13.275,8.261c5.301,0 10.745,-1.672 10.745,-7.306c-0,-4.776 -4.776,-6.017 -8.643,-6.733l-7.211,-1.29c-6.781,-1.289 -12.941,-4.441 -12.941,-12.273c-0,-9.121 8.405,-12.941 16.523,-12.941c8.118,-0 15.281,2.961 17.477,11.127l-6.256,1.289c-1.815,-4.548 -6.441,-7.378 -11.317,-6.924c-4.012,0 -9.551,1.528 -9.551,6.399c0,4.871 4.012,5.826 7.927,6.447l6.447,1.146c3.249,0.376 6.386,1.417 9.217,3.056c3.352,2.2 5.354,5.971 5.3,9.981c-0,10.028 -9.551,13.657 -18.385,13.657c-8.834,-0 -17,-3.534 -19.245,-12.416l6.638,-1.48Z" style="fill-rule:nonzero;"/><path d="M548.351,470.275c0.636,0.044 1.274,0.066 1.912,0.066c15.037,0 27.41,-12.373 27.41,-27.411c0,-0.547 -0.017,-1.095 -0.049,-1.642c0,-17.621 -12.034,-29.654 -30.323,-29.654c-16.571,-0 -28.27,11.699 -28.27,30.323c-0,18.624 11.03,28.318 29.32,28.318m-38.203,108.304c0,11.7 13.085,20.009 35.194,20.009c29.99,-0 46.894,-9.551 46.894,-22.444c0,-9.981 -7.927,-13.801 -24.163,-14.327l-39.635,-2.101c-12.416,5.874 -18.29,11.413 -18.29,19.102m-33.092,-55.776c-0,-12.798 9.55,-25.214 26.933,-34.143c-16.571,-10.029 -25.215,-26.217 -25.215,-47.276c0,-36.913 27.602,-62.796 68.669,-62.796c16.94,-0.192 33.411,5.631 46.465,16.427c8.683,7.282 15.276,16.744 19.101,27.41c2.318,7.234 3.416,14.803 3.248,22.397c-0,34.859 -25.501,57.638 -67.572,57.638c-6.619,0.105 -13.226,-0.602 -19.674,-2.101c-7.927,3.104 -11.748,7.258 -11.748,12.081c0,12.082 16.571,11.032 47.754,13.467c46.56,3.438 66.234,12.416 66.234,46.894c0,35.528 -29.32,55.871 -84.858,55.871c-50.714,0 -76.405,-15.854 -76.405,-45.175c0,-16.904 10.028,-26.216 31.422,-33.092c-16.236,-7.975 -23.877,-15.186 -23.877,-27.602" style="fill:#003c71;fill-rule:nonzero;"/><path d="M631.299,369.515c-0.104,12.292 -10.246,22.349 -22.539,22.349c-12.365,-0 -22.54,-10.175 -22.54,-22.54c0,-12.365 10.174,-22.539 22.539,-22.54c12.365,0 22.54,10.175 22.54,22.54" style="fill:#003c71;fill-rule:nonzero;"/><rect x="652.596" y="312.45" width="42.882" height="251.517" style="fill:#003c71;"/><path d="M797.003,530.73c23.208,0 34.239,-19.101 34.239,-57.304c0,-38.202 -11.175,-57.208 -34.239,-57.208c-23.065,-0 -34.24,18.672 -34.24,57.065c0,38.394 11.413,57.304 34.24,57.304m-0,-151.521c48.421,0 77.503,34.573 77.503,94.074c-0,59.5 -29.75,94.264 -77.503,94.264c-47.753,0 -77.504,-34.955 -77.504,-94.121c-0,-59.166 29.081,-94.074 77.504,-94.074" style="fill:#003c71;fill-rule:nonzero;"/><path d="M972.257,531.399c23.876,-0 38.203,-20.391 38.203,-58.116c-0,-37.725 -14.851,-58.785 -38.203,-58.785c-11.747,0 -21.441,5.158 -32.519,15.186l-0,85.956c10.743,10.411 20.437,15.567 32.185,15.567m-74.018,-9.549l-0,-209.208l42.357,0l0,87.484c10.438,-13.577 26.818,-21.304 43.934,-20.725c39.062,-0 69.194,35.624 69.194,94.074c-0,56.397 -29.416,94.121 -70.579,94.121c-19.389,0 -34.287,-6.924 -49.138,-22.825l-4.489,19.387l-33.428,0c1.385,-19.387 2.101,-33.427 2.101,-42.214" style="fill:#003c71;fill-rule:nonzero;"/><path d="M1108.55,513.921c-0.062,0.602 -0.093,1.207 -0.093,1.812c0,9.693 7.976,17.669 17.669,17.669c0.605,-0 1.209,-0.031 1.812,-0.093c13.514,0 26.646,-6.208 39.779,-19.101l-0,-38.489c-40.113,5.539 -59.167,16.951 -59.167,38.202m60.217,33.905c-15.548,11.708 -34.499,18.03 -53.961,18.003c-30.467,0 -48.422,-18.338 -48.422,-48.422c-0,-40.495 33.427,-62.08 102.717,-70.579l-0,-14.087c-0,-13.18 -8.977,-20.774 -25.596,-20.774c-15.904,-0.254 -30.899,7.576 -39.778,20.774l-29.082,-18.338c15.249,-23.558 38.426,-35.321 69.529,-35.289c42.596,-0 66.473,20.39 66.473,53.627l-0,106.537c0.251,8.259 1.178,16.484 2.769,24.593l-40.829,-0l-3.82,-16.045Z" style="fill:#003c71;fill-rule:nonzero;"/><rect x="1246.93" y="312.45" width="42.882" height="251.517" style="fill:#003c71;"/><path d="M1351.94,515.497c18.002,22.826 34.287,34.239 54.343,34.239c29.75,-0 47.371,-26.599 47.371,-76.071c0,-49.472 -17.621,-76.119 -47.371,-76.119c-20.056,0 -36.341,11.079 -54.343,33.905l-0,84.046Zm-21.442,-132.516l15.903,0l5.539,23.543l1.718,-0c16.953,-18.004 34.956,-26.981 54.344,-26.981c39.444,0 67.093,34.239 67.093,93.74c0,59.501 -27.649,93.788 -67.093,93.788c-19.388,-0 -37.391,-8.692 -54.344,-26.647l-1.718,-0l-0,89.251l-21.442,-0l0,-246.694Z" style="fill:#003c71;fill-rule:nonzero;"/><path d="M1599.26,462.204c-60.886,13.515 -88.917,24.927 -88.917,55.729c0,20.056 11.414,32.185 30.085,32.185c19.722,-0 37.725,-10.745 58.832,-32.185l-0,-55.729Zm-0,77.886c-19.722,18.337 -39.444,27.314 -61.554,27.314c-29.798,0 -48.803,-20.39 -48.803,-48.421c-0,-41.879 34.955,-60.551 110.691,-74.066l0,-17.621c0,-17.669 -14.851,-29.75 -39.778,-29.75c-19.722,0 -34.24,9.551 -44.984,29.034l-16.57,-9.55c14.325,-24.88 33.188,-37.009 64.324,-37.009c34.238,0 58.115,20.438 58.115,47.419l0,112.268c0.429,8.136 1.466,16.229 3.104,24.21l-21.059,0c-1.816,-7.848 -2.983,-15.835 -3.486,-23.876" style="fill:#003c71;fill-rule:nonzero;"/><path d="M1639.75,382.981l21.584,0l53.245,153.957l52.958,-153.957l20.392,0l-68.145,195.168c-12.463,35.958 -26.98,50.81 -58.115,50.81c-6.248,0.007 -12.489,-0.44 -18.672,-1.337l0,-17.334c5.008,0.935 10.091,1.398 15.186,1.384c25.978,-0 37.724,-14.326 44.649,-48.756l-63.082,-179.935Z" style="fill:#003c71;fill-rule:nonzero;"/><path d="M1809.37,382.981l19.722,0l0,28.031l1.385,0c19.102,-20.724 39.111,-31.134 58.117,-31.134c20.438,-0 34.955,10.41 43.264,31.134l2.435,0c19.675,-20.724 38.728,-31.134 58.116,-31.134c30.435,-0 45.652,19.371 45.652,58.115l0,125.925l-20.486,0l-0,-118.284c-0,-31.852 -5.539,-47.085 -31.135,-47.085c-16.618,0 -34.622,11.078 -52.242,33.427l0,131.799l-20.773,0l-0,-118.141c-0,-31.852 -5.539,-47.085 -31.135,-47.085c-16.618,0 -34.24,11.078 -52.242,33.427l0,131.799l-20.678,0l0,-180.794Z" style="fill:#003c71;fill-rule:nonzero;"/><path d="M2138.87,397.212c-28.365,-0 -48.421,21.441 -51.907,60.17l99.66,-0c-1.05,-39.111 -19.101,-60.17 -47.419,-60.17m68.526,123.156c-15.949,32.52 -36.339,46.703 -68.191,46.703c-44.936,-0 -73.683,-35.672 -73.683,-92.403c-0,-59.835 29.749,-95.125 73.014,-95.125c43.264,0 67.81,30.084 67.81,87.532l-0,5.873l-119.384,0c0.383,50.189 19.389,76.788 53.676,76.788c23.16,-0 38.202,-11.413 50.809,-38.203l15.949,8.835Z" style="fill:#003c71;fill-rule:nonzero;"/><path d="M2234.38,382.981l21.441,0l-0,28.366c21.441,-21.059 42.548,-31.469 62.605,-31.469c32.535,-0 48.804,19.371 48.804,58.115l-0,125.925l-21.107,0l-0,-118.284c-0,-31.852 -6.256,-47.085 -33.905,-47.085c-18.004,0 -37.057,11.078 -56.397,33.427l-0,131.799l-21.441,0l0,-180.794Z" style="fill:#003c71;fill-rule:nonzero;"/><path d="M2455.53,550.452c6.483,-0.396 12.896,-1.566 19.102,-3.486l-0,17.335c-7.896,2.151 -16.03,3.306 -24.211,3.438c-24.927,-0 -35.624,-12.463 -35.624,-38.728l-0,-128.361l-26.981,0l-0,-17.669l26.981,0l-0,-53.627l21.107,0l-0,53.627l37.725,0l0,17.669l-37.725,0l-0,129.411c-0,13.802 6.208,20.391 19.722,20.391" style="fill:#003c71;fill-rule:nonzero;"/><path d="M2550.64,550.118c22.492,-0 37.391,-14.326 37.391,-33.427c0,-21.776 -17.001,-26.646 -46.75,-37.725c-36.628,-13.466 -55.68,-23.878 -55.68,-51.526c-0,-27.649 22.491,-48.088 58.45,-48.088c23.541,-0 44.315,11.414 60.216,33.428l-15.233,11.03c-13.849,-18.337 -28.652,-26.98 -48.756,-26.98c-20.104,-0 -32.52,12.129 -32.52,29.75c0,19.388 17.621,23.876 47.753,35.29c36.006,13.514 54.343,24.545 54.343,53.293c-0,30.084 -24.211,51.908 -61.602,51.908c-28.365,-0 -50.14,-11.414 -68.144,-35.672l15.903,-12.798c15.567,20.772 33.427,31.517 54.677,31.517" style="fill:#003c71;fill-rule:nonzero;"/><path d="M277.256,326.49c-0,14.067 -11.577,25.643 -25.644,25.643c-14.067,0 -25.643,-11.576 -25.643,-25.643c0,-14.068 11.576,-25.644 25.643,-25.644c14.067,0 25.644,11.576 25.644,25.644" style="fill:#003c71;fill-rule:nonzero;"/><path d="M175.637,448.022c20.199,-0 33.427,-13.037 33.427,-33.428c-0,-20.39 -13.753,-33.905 -34.621,-33.905c-19.102,0 -32.473,13.467 -32.473,34.86c0,20.63 12.656,32.473 33.667,32.473" style="fill:#003c71;fill-rule:nonzero;"/><path d="M198.224,553.031l-45.557,-2.387c-14.325,6.733 -21.011,13.084 -21.011,21.775c-0,13.467 15.042,23.017 40.399,23.017c34.478,-0 53.866,-11.127 53.866,-25.787c0,-11.461 -9.121,-15.854 -27.697,-16.618" style="fill:#003c71;fill-rule:nonzero;"/><path d="M172.867,630.248c-58.259,0 -87.962,-18.194 -87.962,-51.86c0,-19.435 11.508,-30.132 36.054,-38.202c-18.624,-9.122 -27.315,-17.43 -27.315,-31.661c0,-14.231 10.697,-28.938 30.896,-39.254c-19.1,-11.46 -28.938,-30.084 -28.938,-54.247c-0,-42.405 31.708,-72.107 78.841,-72.107c19.492,-0.16 38.421,6.612 53.388,19.101c9.884,8.385 17.367,19.246 21.68,31.469c2.686,8.309 3.961,17.009 3.772,25.739c0,39.922 -29.32,66.043 -77.646,66.043c-7.599,0.14 -15.187,-0.662 -22.588,-2.387c-9.12,3.581 -13.467,8.357 -13.467,13.896c0,13.848 19.102,12.654 54.679,15.424c53.483,3.963 76.023,14.326 76.023,53.913c0,40.782 -33.667,64.133 -97.417,64.133m107.636,-288.239c-5.734,10.589 -16.849,17.21 -28.891,17.21c-18.023,0 -32.854,-14.83 -32.854,-32.853l0,-0.067c0.017,-3.774 0.662,-7.519 1.91,-11.08c-13.7,-3.295 -27.742,-4.96 -41.832,-4.96c-98.107,-0 -178.836,80.729 -178.836,178.836c-0,98.105 80.729,178.836 178.836,178.836c98.037,-0 178.734,-80.614 178.836,-178.651c0.08,-58.746 -28.821,-113.902 -77.169,-147.271" style="fill:#003c71;fill-rule:nonzero;"/></g></svg>