<?xml version="1.0" encoding="UTF-8" standalone="no"?><!DOCTYPE svg PUBLIC "-//W3C//DTD SVG 1.1//EN" "http://www.w3.org/Graphics/SVG/1.1/DTD/svg11.dtd"><svg width="100%" height="100%" viewBox="0 0 1890 1890" version="1.1" xmlns="http://www.w3.org/2000/svg" xmlns:xlink="http://www.w3.org/1999/xlink" xml:space="preserve" xmlns:serif="http://www.serif.com/" style="fill-rule:evenodd;clip-rule:evenodd;stroke-linejoin:round;stroke-miterlimit:2;"><g><g><g><rect x="652.239" y="727.349" width="1019.62" height="105.585" style="fill:rgb(15,23,42);"/><path d="M1747.39,574.717L1747.39,1315.05C1747.39,1355.2 1718.78,1387.8 1683.54,1387.8L662.781,1387.8C627.543,1387.8 598.934,1355.2 598.934,1315.05L598.934,574.717C598.934,534.566 627.543,501.969 662.781,501.969L1683.54,501.969C1718.78,501.969 1747.39,534.566 1747.39,574.717ZM1671.1,649C1671.1,616.906 1648.23,590.85 1620.06,590.85L726.262,590.85C698.095,590.85 675.228,616.906 675.228,649L675.228,1240.76C675.228,1272.86 698.095,1298.91 726.262,1298.91L1620.06,1298.91C1648.23,1298.91 1671.1,1272.86 1671.1,1240.76L1671.1,649Z" style="fill:rgb(15,23,42);"/><path d="M992.836,955.109C992.836,936.957 978.098,922.22 959.946,922.22L837.853,922.22C819.701,922.22 804.964,936.957 804.964,955.109L804.964,1049.23C804.964,1067.38 819.701,1082.12 837.853,1082.12L959.946,1082.12C978.098,1082.12 992.836,1067.38 992.836,1049.23L992.836,955.109Z" style="fill:rgb(15,23,42);"/></g><g><rect x="214.133" y="1159.94" width="332.767" height="59.055" style="fill:rgb(15,23,42);"/><rect x="214.133" y="915.458" width="332.767" height="59.055" style="fill:rgb(15,23,42);"/><rect x="142.373" y="1037.7" width="332.767" height="59.055" style="fill:rgb(15,23,42);"/></g></g></g></svg>