<?xml version="1.0" encoding="UTF-8" standalone="no"?><!DOCTYPE svg PUBLIC "-//W3C//DTD SVG 1.1//EN" "http://www.w3.org/Graphics/SVG/1.1/DTD/svg11.dtd"><svg width="100%" height="100%" viewBox="0 0 3544 1772" version="1.1" xmlns="http://www.w3.org/2000/svg" xmlns:xlink="http://www.w3.org/1999/xlink" xml:space="preserve" xmlns:serif="http://www.serif.com/" style="fill-rule:evenodd;clip-rule:evenodd;stroke-linejoin:round;stroke-miterlimit:2;"><g><path d="M282.406,462.865L442.778,462.865L442.778,503.022C442.058,551.281 426.579,590.206 396.341,619.795C366.102,650.794 327.764,666.293 281.326,666.293C253.248,666.293 229.129,660.481 208.97,648.856C188.451,638.993 171.892,626.136 159.292,610.284C143.813,593.728 133.553,572.064 128.514,545.293C122.754,518.521 119.874,467.268 119.874,391.533C119.874,315.798 122.754,264.192 128.514,236.716C133.553,210.649 143.813,189.338 159.292,172.782C171.892,156.93 188.451,143.721 208.97,133.153C229.129,122.937 253.248,117.478 281.326,116.773C319.484,117.478 351.883,128.221 378.522,149.004C404.08,170.844 421.719,197.264 431.439,228.262L557.793,228.262C545.193,163.799 514.955,109.728 467.077,66.048C419.2,22.721 357.283,0.705 281.326,0C219.409,0.705 167.752,15.147 126.354,43.328C84.236,71.156 53.637,102.859 34.558,138.437C22.679,157.106 13.859,181.588 8.1,211.882C2.7,242.176 -0,302.06 -0,391.533C-0,479.597 2.7,539.128 8.1,570.127C10.979,586.683 14.579,600.421 18.899,611.341C23.579,621.909 28.799,633.005 34.558,644.629C53.637,680.207 84.236,711.558 126.354,738.682C167.752,766.862 219.409,781.657 281.326,783.066C361.602,781.657 428.199,755.062 481.117,703.28C533.674,651.146 560.673,586.507 562.113,509.363L562.113,352.433L282.406,352.433L282.406,462.865Z" style="fill:rgb(15,23,42);fill-rule:nonzero;"/><path d="M663.628,501.965C663.628,559.735 668.487,603.768 678.207,634.062C688.286,664.356 703.766,690.599 724.645,712.791C740.124,730.051 761.723,745.551 789.441,759.289C816.8,774.436 851.898,782.362 894.736,783.066C939.014,782.362 974.832,774.436 1002.19,759.289C1016.95,752.948 1029.01,745.375 1038.37,736.568C1048.81,728.819 1057.63,720.893 1064.83,712.791C1087.15,690.599 1102.99,664.356 1112.35,634.062C1121.35,603.768 1125.85,559.735 1125.85,501.965C1125.85,444.195 1121.35,399.811 1112.35,368.812C1102.99,338.518 1087.15,312.98 1064.83,292.197C1050.07,273.879 1029.19,257.499 1002.19,243.057C974.832,229.319 939.014,222.098 894.736,221.393C851.898,222.098 816.8,229.319 789.441,243.057C761.723,257.499 740.124,273.879 724.645,292.197C703.766,312.98 688.286,338.518 678.207,368.812C668.487,399.811 663.628,444.195 663.628,501.965ZM1012.99,503.022C1012.99,540.361 1011.19,567.837 1007.59,585.45C1003.99,603.415 996.611,619.267 985.452,633.005C977.172,643.572 964.933,652.907 948.734,661.009C933.254,668.759 915.255,672.634 894.736,672.634C875.657,672.634 858.018,668.759 841.819,661.009C826.34,652.907 813.74,643.572 804.021,633.005C794.301,619.267 787.282,603.415 782.962,585.45C778.642,567.837 776.482,540.009 776.482,501.965C776.482,463.569 778.642,435.389 782.962,417.424C787.282,400.163 794.301,385.016 804.021,371.983C813.74,359.654 826.34,349.967 841.819,342.922C858.018,335.524 875.657,331.826 894.736,331.826C915.255,331.826 933.254,335.524 948.734,342.922C964.933,349.967 977.172,359.654 985.452,371.983C996.611,385.016 1003.99,400.163 1007.59,417.424C1011.19,435.389 1012.99,463.922 1012.99,503.022Z" style="fill:rgb(15,23,42);fill-rule:nonzero;"/><path d="M1244.1,776.725L1356.95,776.725L1356.95,618.738L1445.51,520.459L1594.54,776.725L1736.02,776.725L1516.25,442.258L1709.56,228.262L1574.56,228.262L1359.11,485.585L1356.95,485.585L1356.95,6.341L1244.1,6.341L1244.1,776.725Z" style="fill:rgb(15,23,42);fill-rule:nonzero;"/><path d="M2112.38,776.725L2225.23,776.725L2225.23,402.101C2224.51,335.172 2203.09,287.97 2160.97,260.494C2118.86,233.722 2062.52,220.689 1991.96,221.393C1908.45,219.984 1845.27,246.756 1802.43,301.708L1890.99,367.756C1900.71,351.904 1914.03,340.632 1930.95,333.939C1947.14,328.303 1969.28,325.485 1997.36,325.485C2074.76,324.076 2113.1,347.501 2112.38,395.76L2112.38,453.354L1956.33,453.354C1896.57,454.059 1851.21,469.91 1820.25,500.909C1789.29,531.203 1773.81,569.423 1773.81,615.568C1773.81,663.827 1791.63,703.456 1827.27,734.455C1861.11,766.158 1909.35,782.362 1971.98,783.066C2010.14,783.066 2040.02,778.487 2061.62,769.328C2083.58,760.522 2099.78,746.784 2110.22,728.114L2112.38,728.114L2112.38,776.725ZM2112.38,583.865C2112.38,625.079 2103.56,651.498 2085.92,663.123C2066.48,674.747 2033.18,680.207 1986.02,679.503C1948.59,679.503 1921.77,672.281 1905.57,657.839C1888.65,644.805 1880.19,628.954 1880.19,610.284C1879.47,567.661 1911.87,545.645 1977.38,544.236L2112.38,544.236L2112.38,583.865Z" style="fill:rgb(15,23,42);fill-rule:nonzero;"/><path d="M2371.02,776.725L2483.88,776.725L2483.88,446.485C2484.6,406.328 2496.48,377.267 2519.52,359.302C2540.04,340.984 2564.7,331.826 2593.49,331.826C2619.05,331.826 2643.71,340.984 2667.47,359.302L2749.55,263.664C2716.07,236.188 2676.83,222.098 2631.83,221.393C2571.72,221.393 2523.12,243.057 2486.04,286.384L2483.88,286.384L2483.88,228.262L2371.02,228.262L2371.02,776.725Z" style="fill:rgb(15,23,42);fill-rule:nonzero;"/><path d="M2807.86,228.262L2751.71,228.262L2751.71,312.275L2807.86,312.275L2807.86,641.459C2807.86,684.786 2820.82,717.899 2846.74,740.795C2871.94,764.749 2904.34,776.725 2943.94,776.725L3002.79,776.725L3002.79,672.634L2960.68,672.634C2933.32,673.338 2920,659.776 2920.72,631.948L2920.72,312.275L3002.79,312.275L3002.79,228.262L2920.72,228.262L2920.72,61.293L2807.86,61.293L2807.86,228.262Z" style="fill:rgb(15,23,42);fill-rule:nonzero;"/><path d="M3543.31,544.236L3543.31,453.354C3542.59,381.141 3519.73,324.428 3474.73,283.214C3430.45,242.705 3376.28,222.098 3312.2,221.393C3285.56,221.393 3258.56,226.149 3231.2,235.66C3203.48,245.17 3178.47,260.67 3156.15,282.157C3134.19,303.293 3116.19,332.178 3102.15,368.812C3088.11,404.743 3081.09,449.831 3081.09,504.079C3081.09,560.44 3089.19,606.233 3105.39,641.459C3120.15,678.094 3139.41,706.626 3163.17,727.057C3175.41,736.92 3188.54,745.198 3202.58,751.891C3215.9,759.641 3229.58,765.805 3243.62,770.385C3271.7,778.839 3300.5,783.066 3330.02,783.066C3407.41,783.771 3474.73,754.181 3531.97,694.297L3450.43,626.136C3414.43,661.714 3373.58,679.503 3327.86,679.503C3288.62,679.503 3256.94,667.878 3232.82,644.629C3206.9,621.733 3193.94,588.268 3193.94,544.236L3543.31,544.236ZM3193.94,453.354C3196.1,410.731 3207.8,378.5 3229.04,356.66C3250.64,335.877 3278.36,325.485 3312.2,325.485C3346.04,325.485 3373.76,335.877 3395.35,356.66C3417.31,378.5 3429.01,410.731 3430.45,453.354L3193.94,453.354Z" style="fill:rgb(15,23,42);fill-rule:nonzero;"/><g><g><g><rect x="2211.39" y="1106.84" width="1240.06" height="106.283" style="fill:rgb(34,197,94);"/><path d="M3543.31,953.2L3543.31,1698.42C3543.31,1738.84 3508.51,1771.65 3465.66,1771.65L2224.21,1771.65C2181.35,1771.65 2146.56,1738.84 2146.56,1698.42L2146.56,953.2C2146.56,912.783 2181.35,879.97 2224.21,879.97L3465.66,879.97C3508.51,879.97 3543.31,912.783 3543.31,953.2ZM3450.52,1027.97C3450.52,995.668 3422.71,969.439 3388.45,969.439L2301.41,969.439C2267.16,969.439 2239.35,995.668 2239.35,1027.97L2239.35,1623.65C2239.35,1655.96 2267.16,1682.18 2301.41,1682.18L3388.45,1682.18C3422.71,1682.18 3450.52,1655.96 3450.52,1623.65L3450.52,1027.97Z" style="fill:rgb(34,197,94);"/><path d="M2625.62,1336.11C2625.62,1317.83 2610.78,1303 2592.51,1303L2430.24,1303C2411.97,1303 2397.13,1317.83 2397.13,1336.11L2397.13,1430.85C2397.13,1449.12 2411.97,1463.95 2430.24,1463.95L2592.51,1463.95C2610.78,1463.95 2625.62,1449.12 2625.62,1430.85L2625.62,1336.11Z" style="fill:rgb(34,197,94);"/></g><g><rect x="1678.56" y="1603.97" width="404.71" height="59.055" style="fill:rgb(34,197,94);"/><rect x="1678.56" y="1334.96" width="404.71" height="59.055" style="fill:rgb(34,197,94);"/><rect x="1591.29" y="1469.46" width="404.71" height="59.055" style="fill:rgb(34,197,94);"/></g></g><rect x="-0" y="1568.01" width="141.068" height="138.04" style="fill:rgb(15,23,42);fill-rule:nonzero;"/><path d="M739.089,1504.6C703.541,1551.27 656.068,1575.05 596.671,1575.93C476.977,1578.13 416.23,1507.46 414.43,1363.92C416.23,1219.49 476.977,1148.16 596.671,1149.92C656.068,1151.68 703.541,1175.68 739.089,1221.91L843.034,1131.43C812.435,1095.32 776.437,1066.48 735.039,1044.9C693.641,1023.77 645.718,1012.76 591.271,1011.88C508.475,1011 435.804,1038.08 373.257,1093.12C308.46,1149.04 275.162,1239.31 273.362,1363.92C275.162,1487.21 308.46,1576.37 373.257,1631.41C435.804,1686.45 508.475,1713.97 591.271,1713.97C645.718,1713.09 693.641,1701.42 735.039,1678.97C776.437,1657.39 812.435,1629.43 843.034,1595.09L739.089,1504.6Z" style="fill:rgb(15,23,42);fill-rule:nonzero;"/><path d="M895.681,1706.05L1418.11,1706.05L1418.11,1575.93L1067.12,1575.93L1418.11,1130.11L1418.11,1020.47L914.58,1020.47L914.58,1142L1246.66,1142L895.681,1596.41L895.681,1706.05Z" style="fill:rgb(15,23,42);fill-rule:nonzero;"/></g></g></svg>