<?xml version="1.0" encoding="UTF-8" standalone="no"?><!DOCTYPE svg PUBLIC "-//W3C//DTD SVG 1.1//EN" "http://www.w3.org/Graphics/SVG/1.1/DTD/svg11.dtd"><svg width="100%" height="100%" viewBox="0 0 3544 3544" version="1.1" xmlns="http://www.w3.org/2000/svg" xmlns:xlink="http://www.w3.org/1999/xlink" xml:space="preserve" xmlns:serif="http://www.serif.com/" style="fill-rule:evenodd;clip-rule:evenodd;stroke-linejoin:round;stroke-miterlimit:2;"><g><g><rect x="1151.9" y="1329.08" width="2079.02" height="214.821" style="fill:rgb(15,23,42);"/><path d="M3384.94,1018.52L3384.94,2524.78C3384.94,2606.47 3326.61,2672.8 3254.76,2672.8L1173.4,2672.8C1101.55,2672.8 1043.22,2606.47 1043.22,2524.78L1043.22,1018.52C1043.22,936.832 1101.55,870.511 1173.4,870.511L3254.76,870.511C3326.61,870.511 3384.94,936.832 3384.94,1018.52ZM3229.38,1169.66C3229.38,1104.36 3182.75,1051.35 3125.32,1051.35L1302.84,1051.35C1245.4,1051.35 1198.78,1104.36 1198.78,1169.66L1198.78,2373.65C1198.78,2438.94 1245.4,2491.96 1302.84,2491.96L3125.32,2491.96C3182.75,2491.96 3229.38,2438.94 3229.38,2373.65L3229.38,1169.66Z" style="fill:rgb(15,23,42);"/><path d="M1846.38,1792.46C1846.38,1755.53 1819.48,1725.54 1786.35,1725.54L1523.34,1725.54C1490.2,1725.54 1463.31,1755.53 1463.31,1792.46L1463.31,1983.95C1463.31,2020.88 1490.2,2050.87 1523.34,2050.87L1786.35,2050.87C1819.48,2050.87 1846.38,2020.88 1846.38,1983.95L1846.38,1792.46Z" style="fill:rgb(15,23,42);"/></g><g><rect x="299.747" y="2271.55" width="655.594" height="94.488" style="fill:rgb(15,23,42);"/><rect x="299.747" y="1812.27" width="655.594" height="94.488" style="fill:rgb(15,23,42);"/><rect x="158.366" y="2041.9" width="655.594" height="94.488" style="fill:rgb(15,23,42);"/></g><g><path d="M2790.57,2097.13L2930.6,2097.13L2930.6,2123C2929.97,2154.09 2916.45,2179.17 2890.05,2198.23C2863.65,2218.2 2830.17,2228.19 2789.62,2228.19C2765.11,2228.19 2744.05,2224.44 2726.44,2216.95C2708.53,2210.6 2694.07,2202.32 2683.07,2192.1C2669.55,2181.44 2660.59,2167.48 2656.19,2150.24C2651.16,2132.99 2648.65,2099.97 2648.65,2051.18C2648.65,2002.39 2651.16,1969.14 2656.19,1951.44C2660.59,1934.65 2669.55,1920.92 2683.07,1910.25C2694.07,1900.04 2708.53,1891.53 2726.44,1884.72C2744.05,1878.14 2765.11,1874.62 2789.62,1874.17C2822.94,1874.62 2851.23,1881.55 2874.49,1894.94C2896.81,1909.01 2912.21,1926.03 2920.7,1946L3031.03,1946C3020.03,1904.47 2993.62,1869.63 2951.82,1841.49C2910.01,1813.58 2855.95,1799.4 2789.62,1798.94C2735.56,1799.4 2690.45,1808.7 2654.3,1826.86C2617.53,1844.78 2590.81,1865.21 2574.15,1888.13C2563.78,1900.15 2556.08,1915.93 2551.05,1935.44C2546.33,1954.96 2543.97,1993.54 2543.97,2051.18C2543.97,2107.91 2546.33,2146.26 2551.05,2166.23C2553.56,2176.9 2556.7,2185.75 2560.48,2192.78C2564.56,2199.59 2569.12,2206.74 2574.15,2214.23C2590.81,2237.15 2617.53,2257.35 2654.3,2274.82C2690.45,2292.98 2735.56,2302.51 2789.62,2303.41C2859.72,2302.51 2917.87,2285.37 2964.08,2252.01C3009.97,2218.43 3033.54,2176.79 3034.8,2127.09L3034.8,2025.99L2790.57,2025.99L2790.57,2097.13Z" style="fill:rgb(15,23,42);fill-rule:nonzero;"/></g></g></svg>