<?xml version="1.0" encoding="UTF-8" standalone="no"?><!DOCTYPE svg PUBLIC "-//W3C//DTD SVG 1.1//EN" "http://www.w3.org/Graphics/SVG/1.1/DTD/svg11.dtd"><svg width="100%" height="100%" viewBox="0 0 2134 2134" version="1.1" xmlns="http://www.w3.org/2000/svg" xmlns:xlink="http://www.w3.org/1999/xlink" xml:space="preserve" xmlns:serif="http://www.serif.com/" style="fill-rule:evenodd;clip-rule:evenodd;stroke-linejoin:round;stroke-miterlimit:2;"><g><path d="M0,0l33.333,91.667l-33.333,95.833l0,95.833l133.333,225l-133.333,225l0,133.334l133.333,200l-133.333,200l0,133.333l133.333,225l-133.333,225l0,283.333l91.667,-33.333l95.833,33.333l95.833,0l225,-133.333l225,133.333l133.334,0l200,-133.333l200,133.333l133.333,0l225,-133.333l225,133.333l283.333,0l-33.333,-91.666l33.333,-95.834l0,-95.833l-133.333,-225l133.333,-225l0,-133.333l-133.333,-200l133.333,-200l0,-133.334l-133.333,-225l133.333,-225l0,-283.333l-91.666,33.333l-95.834,-33.333l-95.833,0l-225,133.333l-225,-133.333l-133.333,0l-200,133.333l-200,-133.333l-133.334,0l-225,133.333l-225,-133.333l-283.333,0Z" style="fill:#eee;fill-rule:nonzero;"/><path d="M1400,0l0,450l450,-450l-450,0Zm733.333,283.333l-450,450l450,0l0,-450Zm-2133.33,450l450,0l-450,-450l0,450Zm283.333,-733.333l450,450l0,-450l-450,-0Zm450,2133.33l0,-450l-450,450l450,0Zm-733.333,-283.333l450,-450l-450,0l-0,450Zm2133.33,-450l-450,0l450,450l0,-450Zm-283.333,733.333l-450,-450l0,450l450,0Z" style="fill:#0052b4;fill-rule:nonzero;"/><path d="M0,0l0,187.5l545.833,545.833l187.5,0l-733.333,-733.333Zm866.667,0l-0,866.667l-866.667,-0l0,400l866.667,-0l-0,866.666l400,0l-0,-866.666l866.666,-0l0,-400l-866.666,-0l-0,-866.667l-400,0Zm1079.17,0l-545.833,545.833l0,187.5l733.333,-733.333l-187.5,0Zm-1212.5,1400l-733.333,733.333l187.5,0l545.833,-545.833l0,-187.5Zm666.667,0l733.333,733.333l0,-187.5l-545.833,-545.833l-187.5,0Z" style="fill:#d80027;fill-rule:nonzero;"/></g></svg>